<svg xmlns="http://www.w3.org/2000/svg" viewBox="0 0 256 256">
  <rect width="256" height="256" fill="#fff"/>
  <g fill="#111" shape-rendering="crispEdges">
    <rect x="16" y="16" width="80" height="80"/>
    <rect x="32" y="32" width="48" height="48" fill="#fff"/>
    <rect x="160" y="16" width="80" height="80"/>
    <rect x="176" y="32" width="48" height="48" fill="#fff"/>
    <rect x="16" y="160" width="80" height="80"/>
    <rect x="32" y="176" width="48" height="48" fill="#fff"/>
    <!-- random blocks -->
    <rect x="120" y="24" width="16" height="16"/>
    <rect x="120" y="56" width="16" height="16"/>
    <rect x="120" y="88" width="16" height="16"/>
    <rect x="104" y="120" width="16" height="16"/>
    <rect x="136" y="120" width="16" height="16"/>
    <rect x="168" y="120" width="16" height="16"/>
    <rect x="200" y="120" width="16" height="16"/>
    <rect x="104" y="152" width="16" height="16"/>
    <rect x="136" y="152" width="16" height="16"/>
    <rect x="168" y="152" width="16" height="16"/>
    <rect x="200" y="152" width="16" height="16"/>
    <rect x="120" y="184" width="16" height="16"/>
    <rect x="152" y="184" width="16" height="16"/>
    <rect x="184" y="184" width="16" height="16"/>
  </g>
</svg>