<svg xmlns="http://www.w3.org/2000/svg" xmlns:xlink="http://www.w3.org/1999/xlink" width="500" zoomAndPan="magnify" viewBox="0 0 375 374.999991" height="500" preserveAspectRatio="xMidYMid meet" version="1.0"><path fill="#529ac7" d="M 223.214844 165.664062 C 231.953125 147.660156 241.121094 130.109375 250.597656 112.71875 C 252.570312 109.097656 252.605469 109.039062 255.734375 111.550781 C 262.707031 117.144531 261.597656 115.023438 258.574219 122.621094 C 249.949219 144.285156 241.082031 165.84375 231.597656 187.148438 C 231.3125 187.796875 230.785156 188.429688 231.28125 189.425781 C 234.144531 189.582031 237.019531 188.910156 239.898438 188.476562 C 259.222656 185.542969 278.417969 182.058594 296.484375 174.160156 C 312.472656 167.167969 325.207031 156.695312 332.324219 140.324219 C 335.898438 132.101562 337.773438 123.457031 338.332031 114.523438 C 338.535156 111.292969 338.675781 108.058594 338.875 104.828125 C 338.980469 103.152344 339.757812 101.910156 341.570312 101.929688 C 343.238281 101.945312 344.113281 103.152344 344.105469 104.6875 C 344.003906 125.488281 339.960938 144.984375 325.1875 160.835938 C 314.382812 172.425781 300.628906 179.074219 285.859375 183.882812 C 268.375 189.578125 250.308594 192.570312 232.125 194.890625 C 229.105469 195.277344 227.308594 196.207031 225.921875 199.210938 C 212.632812 227.972656 197.882812 255.957031 180.273438 282.347656 C 169.160156 299 157.214844 315.027344 142.890625 329.097656 C 132.464844 339.335938 121.039062 348.285156 107.476562 354.082031 C 80.722656 365.519531 42.679688 357.34375 29.207031 319.910156 C 19.683594 293.453125 27.074219 254.59375 51.820312 233.960938 C 52.441406 233.441406 52.953125 232.703125 53.917969 232.785156 C 55.492188 235.644531 55.328125 237.953125 53.230469 239.929688 C 39.035156 253.285156 32.222656 269.898438 30.691406 289.152344 C 29.445312 304.792969 32.5625 319.144531 41.453125 332.105469 C 49.800781 344.277344 61.601562 350.835938 76.066406 352.910156 C 94.476562 355.546875 110.199219 349.410156 123.988281 337.738281 C 139.734375 324.414062 151.386719 307.710938 161.757812 290.09375 C 178.636719 261.417969 192.28125 231.105469 206.371094 201.027344 C 206.679688 200.371094 206.878906 199.664062 207.421875 198.179688 C 186.503906 200 166.105469 202.140625 145.808594 205.132812 C 125.40625 208.136719 105.203125 212.160156 85.964844 219.851562 C 84.339844 216.09375 84.917969 214.640625 88.285156 213.382812 C 104.917969 207.183594 122.199219 203.570312 139.660156 200.75 C 162.398438 197.082031 185.34375 195.089844 208.214844 192.523438 C 210.074219 192.316406 210.945312 191.484375 211.675781 189.917969 C 215.441406 181.875 219.292969 173.867188 223.214844 165.664062 Z M 223.214844 165.664062 " fill-opacity="1" fill-rule="nonzero"/><path fill="#529ac7" d="M 84.890625 246.191406 C 87.839844 262.167969 92.542969 277.300781 100.261719 291.398438 C 107.40625 304.4375 116.480469 315.933594 128.035156 325.351562 C 130.164062 327.085938 130.300781 328.285156 128.199219 330.03125 C 125.996094 331.863281 123.929688 333.863281 121.878906 335.871094 C 120.671875 337.050781 119.625 337.039062 118.21875 336.144531 C 104.785156 327.625 93.25 317.042969 83.679688 304.347656 C 70.785156 287.234375 62.828125 267.964844 59.300781 246.90625 C 54.390625 217.582031 57.292969 189.148438 70.40625 162.210938 C 84.441406 133.390625 106.503906 112.667969 135.464844 99.171875 C 136.84375 98.527344 138.109375 97.46875 140.375 97.515625 C 137.007812 102.410156 136.730469 108.222656 131.414062 112.128906 C 104.28125 132.070312 89.417969 159.476562 84.128906 192.417969 C 82.230469 204.25 81.75 216.144531 82.65625 228.070312 C 83.109375 234.050781 84.101562 239.992188 84.890625 246.191406 Z M 84.890625 246.191406 " fill-opacity="1" fill-rule="nonzero"/><path fill="#529ac7" d="M 153.792969 97.640625 C 158.4375 90.847656 165.210938 88.679688 172.777344 87.398438 C 191.523438 84.222656 210.164062 85.128906 228.863281 87.691406 C 243.90625 89.753906 258.660156 93.269531 273.566406 96.027344 C 282.144531 97.613281 286.535156 94.539062 288.507812 86.066406 C 289.117188 83.449219 289.472656 80.789062 289.425781 78.089844 C 289.402344 76.742188 289.382812 75.410156 291.308594 75.382812 C 293.3125 75.351562 293.476562 76.683594 293.476562 78.183594 C 293.484375 90.960938 293.507812 103.734375 293.507812 116.511719 C 293.507812 131.878906 293.496094 147.246094 293.484375 162.609375 C 293.484375 163.621094 293.679688 164.707031 293.070312 165.589844 C 292.535156 166.363281 291.636719 166.316406 290.789062 166.191406 C 289.554688 166.015625 289.480469 165.082031 289.4375 164.121094 C 288.882812 151.539062 284.597656 140.207031 277.371094 130.058594 C 262.136719 108.671875 241.660156 95.445312 215.523438 91.597656 C 194.976562 88.570312 174.929688 90.632812 155.566406 98.398438 C 153.917969 99.058594 153.902344 99.019531 153.792969 97.640625 Z M 153.792969 97.640625 " fill-opacity="1" fill-rule="nonzero"/><path fill="#529ac7" d="M 274.214844 71.683594 C 278.164062 65.441406 282.003906 59.367188 286.003906 53.035156 C 283.167969 52.339844 280.839844 53.132812 278.558594 53.503906 C 260.03125 56.5 241.394531 58.867188 223.023438 62.765625 C 204.0625 66.789062 185.320312 71.554688 168.457031 81.628906 C 156.859375 88.5625 147.511719 97.5625 143.523438 110.9375 C 140.683594 120.457031 140.164062 130.046875 144.160156 139.460938 C 145.476562 142.558594 147.347656 145.304688 149.808594 147.617188 C 151.105469 148.839844 152.273438 150.222656 150.734375 151.871094 C 149.144531 153.574219 147.539062 152.675781 146.164062 151.324219 C 139.539062 144.820312 136.484375 136.734375 136.152344 127.628906 C 135.441406 108.230469 143.625 93.109375 158.929688 81.628906 C 171.121094 72.476562 185.164062 67.253906 199.621094 63.078125 C 218.675781 57.578125 238.214844 54.394531 257.773438 51.339844 C 267.910156 49.753906 278.035156 48.105469 288.179688 46.570312 C 289.96875 46.300781 291.199219 45.558594 292.234375 44.082031 C 296.96875 37.308594 302.308594 31.046875 308.511719 25.566406 C 314.363281 20.390625 320.867188 16.511719 328.78125 15.351562 C 337.796875 14.027344 342.929688 19.855469 340.308594 28.578125 C 339.320312 31.863281 337.492188 34.558594 334.855469 36.765625 C 328.199219 42.351562 320.121094 44.792969 311.996094 47.023438 C 306.742188 48.464844 301.375 49.535156 296.011719 50.507812 C 293.628906 50.941406 292.65625 52.601562 291.527344 54.265625 C 284.429688 64.71875 279.132812 76.144531 273.746094 87.519531 C 271.082031 93.144531 269.628906 93.710938 263.890625 90.988281 C 263.738281 90.914062 263.640625 90.726562 263.292969 90.347656 C 266.390625 83.972656 270.460938 78.035156 274.214844 71.683594 M 317.246094 25.542969 C 309.589844 30.660156 303.886719 37.695312 297.628906 45.09375 C 304.898438 43.136719 311.640625 41.917969 318.085938 39.609375 C 323.230469 37.765625 328.316406 35.777344 332.304688 31.8125 C 334.207031 29.917969 335.386719 27.660156 335.519531 24.949219 C 335.671875 21.804688 334.453125 20.492188 331.277344 20.566406 C 326.21875 20.683594 321.761719 22.632812 317.246094 25.542969 Z M 317.246094 25.542969 " fill-opacity="1" fill-rule="nonzero"/><path fill="#529ac7" d="M 237.332031 349.6875 C 260.390625 343.980469 280.097656 332.496094 297.644531 316.914062 C 299.625 321.617188 298.632812 325.269531 295.011719 328.105469 C 272.351562 345.839844 246.585938 355.277344 217.988281 357.839844 C 198.347656 359.597656 179.023438 358.5625 159.90625 353.785156 C 151.273438 351.628906 142.863281 348.808594 134.796875 345.027344 C 133.808594 344.5625 132.703125 344.261719 131.792969 342.890625 C 134.660156 340.433594 137.492188 337.847656 140.515625 335.507812 C 141.640625 334.640625 142.777344 335.925781 143.75 336.496094 C 154.210938 342.632812 165.363281 347.058594 177.171875 349.707031 C 197.125 354.1875 217.125 354.4375 237.332031 349.6875 Z M 237.332031 349.6875 " fill-opacity="1" fill-rule="nonzero"/></svg>