<svg version="1.2" xmlns="http://www.w3.org/2000/svg">
	<path id="&lt;Compound Path&gt;" class="s0" d="m213.18 205.79c1.44-0.79 3.06-0.6 4.6-0.83 1.75-0.26 3.32-0.92 4.91-1.65 3.08-1.43 5.85-3.44 9.03-4.68 0.33-0.13 0.42-0.36 0.5-0.7 0.85-3.33 2.92-5.42 6.34-6.08 0.32-0.06 0.67 0.07 0.8-0.46 0.74-2.94 4.14-3.99 6.77-3.72 2 0.21 3.97 0.59 6 0.61 2.28 0.01 3.94-0.92 5.03-2.9q0.25-0.48 0.56-0.91c0.51-0.67 1.04-0.62 1.53 0.04q0.21 0.28 0.39 0.59c1.19 1.99 2.74 3.41 5.06 4.17 3.52 1.14 7.07 2.17 10.6 3.29 4.73 1.51 8.77 3.96 11.08 8.62 0.04 0.09 0.17 0.15 0.31 0.26 0.63-1.51 0.95-3.21 2.35-4.17 1.23-0.84 1.51-1.89 1.54-3.29 0.06-3.3 1.78-5.77 4.12-7.97 3.75-3.54 8.3-3.94 13.07-3.57 2 0.16 4 0.48 6 0.74 3.36 0.43 6.63 0.05 9.83-0.99 0.53-0.17 1.04-0.39 1.46-0.78 0.21-0.2 0.45-0.36 0.74-0.16 0.27 0.18 0.23 0.47 0.19 0.75q-0.01 0.12-0.05 0.23c-0.98 2.74 0.16 4.67 2.48 5.95 3.63 2.02 4.58 4.99 3.49 8.83-0.03 0.1 0.01 0.22 0.03 0.46 1.69-0.58 3.36-0.98 5.06-1.27 1.18-0.19 2.35-0.33 3.53 0 2.02 0.57 2.64 1.42 2.6 3.7 2.21-0.09 4.14 0.75 5.99 1.87 1.52 0.92 2.61 2.15 3.22 3.81 0.54 1.47 1.09 2.93 1.75 4.39 0-1.83 0.46-3.51 1.32-5.08 0.88-1.62 2.01-2.94 3.84-3.49 0.6-0.18 0.88-0.49 0.91-1.17 0.18-3.11 2-5.06 5.12-5.56 1.2-0.19 2.41-0.42 3.63-0.05 0.25 0.08 0.52 0.09 0.78-0.11 1.34-1.03 2.9-1.18 4.51-1.03 1 0.1 1.84-0.17 2.64-0.79q1.31-1.02 2.73-1.88c2.73-1.66 5.67-1.24 7.84 1.07 1.02 1.08 1.48 2.35 1.11 3.8-0.15 0.54-0.01 0.81 0.4 1.07 1.56 1 3.08 2.05 4.41 3.45 0.36-0.55 0.47-0.89-0.2-1.15-1.43-0.55-1.65-2.11-2.47-3.17-0.29-0.37-0.04-0.87 0.36-1.12 0.39-0.24 0.85-0.21 1.23 0.07 0.39 0.3 0.51 0.72 0.31 1.16-0.14 0.32-0.37 0.61-0.59 0.96 0.37 0.69 0.72 1.43 1.7 1.51 0.83-1.35 0.11-2.72 0.16-4.07 0.02-0.3-0.26-0.34-0.49-0.42-0.77-0.29-0.87-0.89-0.59-1.54 0.25-0.59 0.82-0.77 1.4-0.58 0.78 0.26 0.75 0.9 0.57 1.56-0.34 1.21-0.19 2.4 0.04 3.6 0.8 0.09 1.27-0.33 1.65-0.83q0.98-1.29 1.44-2.83c0.2-0.68 0.56-1.39-0.38-1.94-0.41-0.24-0.43-0.83-0.12-1.29 0.33-0.5 0.85-0.6 1.36-0.41 0.48 0.18 0.6 0.7 0.46 1.1-0.56 1.59-0.61 3.34-1.58 4.8-0.62 0.95-1.29 1.79-2.46 2.07-0.18 0.05-0.4 0.1-0.52 0.22-0.43 0.48-0.46 3.23-0.1 3.79 0.47 0.71 0.9 1.46 1.46 2.36 0.4-6.38 4.28-10.44 8.74-14.12q0.27-0.24 0.58-0.41c0.4-0.22 0.78-0.71 1.26-0.48 0.52 0.25 0.34 0.84 0.34 1.3-0.05 3.67 0.83 7.2 1.74 10.69 1.91 7.35-0.65 13.05-6.19 17.8 0.1 0.5 0.48 0.85 0.76 1.26 1.17 1.7 1.93 3.54 1.81 5.64-0.05 0.93 0.21 1.55 1.06 2 0.47 0.24 0.83 0.68 1.3 1.07 1.28-1.86 1.31-3.97 1.68-6 1.14-6.27 1.94-12.6 4.7-18.47 1.67-3.55 4.4-6.24 6.98-9.06 0.22-0.23 0.48-0.47 0.83-0.3 0.36 0.17 0.29 0.52 0.26 0.83-0.3 3.1-0.65 6.19-0.88 9.3-0.19 2.59-0.72 5.11-1.37 7.67 4.34-5.22 10.5-7.99 15.78-11.93 2.12-1.58 4.15-3.29 5.82-5.38 0.22-0.28 0.42-0.71 0.99-0.53 0.03 0.13 0.11 0.28 0.08 0.41-1.45 5.99-4.18 11.1-9.76 14.31-3.29 1.88-6.66 3.59-10 5.37-1.43 0.76-2.82 1.58-4.13 2.53-2.03 1.46-2.88 3.76-4.24 5.72 5.26-3.65 10.96-6.09 17.3-6.75 0.26 0.46 0.11 0.67-0.16 0.82-2.58 1.48-4.32 3.78-5.97 6.16-1.69 2.45-3.58 4.71-5.8 6.71-2.07 1.87-4.51 2.84-7.3 3.2 1.23 2.86 1.54 5.67-0.25 8.51 1.25 0.63 2.22 1.48 3.04 2.5 0.29 0.35 0.63 0.37 1.06 0.19 1.04-0.46 2.1-0.86 3.19-1.31-0.59-1.87 0.31-3.28 1.3-4.61 0.45-0.61 0.9-1.08 0.88-1.94-0.03-0.73 0.62-1.06 1.34-1 0.65 0.06 1 0.49 0.99 1.13 0 0.66-0.32 1.12-1.02 1.24-2.02 0.36-3.46 2.72-2.86 4.81 0.8-0.4 1.75-0.51 1.73-1.81-0.01-0.64 0.66-0.99 1.33-0.85 0.7 0.15 1.4 0.4 1.36 1.35-0.04 0.76-0.55 1.34-1.18 1.2-1.92-0.41-3.07 1.17-4.78 1.5 0.54 0.83 1.29 0.87 2 0.9 1.39 0.06 2.77 0.06 4.16 0.08 0.53 0.01 0.99-0.11 1.35-0.56 0.39-0.5 0.9-0.59 1.47-0.22 0.45 0.3 0.61 0.74 0.47 1.23-0.18 0.67-0.83 0.88-1.33 0.68-2.13-0.85-4.35-0.26-6.51-0.53-0.86-0.11-1.72-0.35-2.2-1.25-0.65 0.26-1.22 0.49-1.91 0.76 1.2 1.83 1.12 3.73 0.85 5.69-0.3 2.07 0.65 3.69 2.06 5.07 0.58 0.56 0.58 0.86-0.02 1.4-1.26 1.14-2.08 2.55-2.22 4.32-0.08 0.9-0.29 1.79-0.46 2.68-0.41 2.23-1.75 3.6-3.94 4.08-0.77 0.17-1.41 0.41-1.84 1.11-0.37 0.6-0.98 0.88-1.64 0.69-0.93-0.28-1.77-0.17-2.64 0.18-0.32 0.13-0.76 0.24-1.04 0.11-1.35-0.59-2.1 0.26-3.05 1.01-2.49 1.96-5.38 2.04-8.36 1.43q-0.24-0.03-0.45-0.13c-1.46-0.7-2.78-0.6-4.21 0.26-1.26 0.77-2.76 0.94-4.24 0.45-0.31-0.1-0.63-0.16-0.92 0.02-2.03 1.24-4.15 2.36-5.51 4.41-0.41 0.6-0.86 1.23-0.69 2.15 0.97-0.06 1.79-0.43 2.62-0.76 2.01-0.81 4.01-1.68 6.03-2.49q1.05-0.42 2.16-0.64c2.35-0.45 4.7-0.8 6.91-1.87 1.39-0.66 3-0.64 4.54-0.17 0.52 0.15 0.96 0.42 1.09 0.98 0.15 0.62-0.31 0.94-0.71 1.25-2.16 1.67-5.02 1.78-7.31 0.29-0.31-0.19-0.58-0.42-0.98-0.34-2.17 0.4-4.34 0.83-6.5 1.76 0.76 0.81 1.68 1.17 2.54 1.57q1.4 0.65 2.87 1.12c0.72 0.23 1.41 0.21 2.18-0.11 1.94-0.82 3.94-0.71 5.89 0.08 0.39 0.16 0.78 0.43 1.06 0.74 0.98 1.08 0.65 2.25-0.79 2.4-2.18 0.22-4.38 0.24-5.99-1.69-0.25-0.3-0.53-0.42-0.92-0.43-2.64-0.04-4.91-1.08-6.94-2.69-0.56-0.43-1.01-0.58-1.71-0.28-3.03 1.27-6.09 2.45-9.4 2.8-0.11 0.01-0.2 0.11-0.3 0.16 1 1.63 4.57 3 6.33 2.53 1.89-0.51 3.76-0.48 5.49 0.61 0.51 0.32 0.93 0.74 1.19 1.3 0.32 0.67 0.15 1.16-0.59 1.37-1.33 0.37-5.2-0.02-6.12-1.68-0.32-0.58-0.87-0.62-1.4-0.74-2.21-0.46-4.28-1.19-5.74-3.04-0.19-0.24-0.41-0.36-0.71-0.35-2.62 0.1-5.2-0.28-7.79-0.63-0.14-0.02-0.3 0.03-0.51 0.06 0.2 1.09 0.57 2.09 0.49 3.18-0.15 2.07-0.88 3.77-2.91 4.64-0.67 0.29-0.9 0.69-0.7 1.44 1.54 0.61 3.18 0.65 4.84 0.58 0.41-0.01 0.49-0.27 0.63-0.57 0.27-0.6 0.74-0.79 1.35-0.45 0.58 0.31 0.94 0.79 0.72 1.45-0.2 0.61-0.9 1-1.31 0.69-1.27-0.96-2.65-0.13-3.92-0.53-0.44 1.97 1.6 4.96 3.44 5.07 0.78 0.04 0.98 0.58 1.12 1.15 0.11 0.46-0.22 0.7-0.63 0.86-0.66 0.24-1.23-0.09-1.35-0.6-0.17-0.72-0.69-0.99-1.13-1.41-1.01-1-1.8-2.21-1.94-3.59-0.14-1.45-0.81-1.98-2.25-1.96-0.83 1.37-2.3 1.9-3.85 2.24 0.36 5.06-3.77 7.23-8.66 6.4-0.73-0.12-1.17-0.17-1.63 0.6-0.71 1.2-1.88 1.37-3.05 0.6-1.47-0.96-2.4-2.4-3.22-3.89-1.1-1.99-1.84-4.12-2.07-6.39-0.11-1.06-0.42-2.02-1.04-2.85-1.71-2.28-2.01-4.85-1.65-7.55 0.1-0.72-0.1-1.09-0.68-1.44q-2.18-1.32-4.32-2.7c-0.46-0.3-0.89-0.4-1.43-0.13-0.63 0.32-1.31 0.55-2.06 0.85 0.52 0.54 1.17 0.6 1.72 0.83 1.36 0.56 2.75 1.12 3.72 2.25 2.09 2.42 0.87 6.46-2.24 7.45-2.63 0.83-5.31 0.64-7.98 0.13q-0.47-0.1-0.93-0.22c-0.02 0-0.06 0.04-0.26 0.16 1.21 1.53 2.75 2.54 4.46 3.33 1.76 0.81 3.51 1.61 4.88 3.06 0.81 0.85 1.52 1.78 1.77 2.9 0.4 1.79 1.56 2.99 2.86 4.1 1.95 1.68 4.14 3.01 6.46 4.14 0.53 0.27 0.86 0.25 1.29-0.24 1.11-1.28 2.75-1.51 4.27-1.82 2.1-0.41 4.21-0.73 6.23-1.54 1.21-0.48 2.58-0.34 3.84 0.1 0.51 0.17 1.11 0.43 1.1 1.08-0.02 0.58-0.57 0.81-1.05 1-1.61 0.63-3.27 0.78-4.83 0.03-1.41-0.68-2.74-0.62-4.2-0.31-1.38 0.3-2.79 0.5-4.07 1.14-0.44 0.22-0.96 0.41-1.06 1.2 2.06 0.38 3.98 1.33 6.24 0.69 1.67-0.47 3.46-0.34 5.08 0.46 0.52 0.25 1.17 0.57 1.03 1.28-0.15 0.72-0.83 0.9-1.48 0.96-1.57 0.15-3.07-0.19-4.47-0.87-1.53-0.75-3.11-1.25-4.79-1.56-2.21-0.41-4.23-1.39-6.4-2.69 0.44 1.5 1.2 2.49 2.06 3.38q3.04 3.2 7.3 4.39c1.14 0.32 2.27 0.7 3.19 1.48 0.49 0.43 1.08 0.98 0.72 1.72-0.36 0.73-1.07 0.59-1.77 0.42q-2.99-0.74-4.48-3.4c-0.21-0.37-0.51-0.46-0.79-0.62-2.18-1.23-4.3-2.53-5.78-4.63-0.43-0.61-0.96-1.22-1.04-1.96-0.13-1.17-0.91-1.7-1.74-2.31-1-0.74-1.91-1.6-3.05-2.58 0 0.85 0.06 1.52-0.02 2.16-0.37 3.2-2.12 5.29-5.21 6.2-0.79 0.24-1.22 0.61-1.46 1.46-0.6 2.08-2.94 3.54-5.59 3.67-2.51 0.12-3.02-0.02-6.68-1.86-0.81 1.25-1.91 2.23-3.1 3.16-2.01 1.55-4.17 2.15-6.67 1.63-1.15-0.25-2.3-0.63-3.51-0.41q-2.41 0.43-4.18 2.09c-0.58 0.54-0.92 0.57-1.41-0.1-1.24-1.73-2.87-2.88-5.04-3.24-1.16-0.2-2.31-0.54-3.43-0.93-2.41-0.85-3.69-2.63-3.93-5.13-0.08-0.81-0.31-1.44-0.96-1.92-0.95-0.7-1.05-1.64-0.61-2.65 0.29-0.66 0.28-1.26 0.06-1.94-0.33-1-0.35-2.02 0.19-2.98 0.2-0.34 0.27-0.63-0.04-0.97-3.02-3.31-3.16-7.15-2.07-11.23 0.01-0.03-0.01-0.07-0.04-0.28-3.2 2.49-7.07 3.89-9.71 7.04-0.18 0.21-0.44 0.41-0.49 0.66-0.34 1.41-1.03 1.14-1.96 0.54-3.73-2.38-7.7-3.29-12.07-1.95-2.3 0.71-4.65 0.92-6.94-0.19-1.47-0.71-2.68-1.7-3.32-3.22-0.27-0.65-0.58-0.85-1.3-0.86-4.05-0.04-7.04-2.59-7.67-6.55-1.42 0.11-2.81-0.02-4.02-0.94-0.38-0.28-0.75 0.06-1.1 0.2-1.46 0.61-2.9 1.22-4.48 1.47-1.19 0.2-2.35 0.18-3.53-0.02-1.16-0.19-2.26-0.62-3.61-1.02 0.42 0.8 0.75 1.42 1.08 2.06 1.39 2.72 2.2 5.57 1.85 8.68-0.23 2.09-1.08 3.87-2.44 5.42-0.37 0.42-0.47 0.75-0.16 1.25 0.2 0.32 0.35 0.75 0.32 1.12-0.1 1.66-0.49 3.31 0.08 4.98 0.15 0.43-0.17 0.86-0.53 1.11-0.93 0.65-1.15 1.57-1.3 2.64-0.36 2.45-1.78 4.08-4.18 4.79-1.1 0.32-2.21 0.67-3.33 0.87-2.04 0.35-3.57 1.48-4.75 3.08-0.56 0.76-0.87 0.74-1.56 0.15-1.91-1.66-4.08-2.57-6.67-1.82-4.09 1.18-7.28-0.3-10.35-4.16q-0.16-0.18-0.31-0.35c-0.47-0.07-0.74 0.26-1.05 0.48-2.43 1.68-6.68 1.82-9.13 0.23-1.08-0.7-1.98-1.59-2.25-2.92-0.1-0.47-0.28-0.8-0.78-0.93-4.18-1.12-6-3.94-5.85-8.17 0-0.06-0.06-0.13-0.16-0.32-1.26 1.29-2.59 2.44-4.08 3.39-0.11 0.07-0.21 0.24-0.24 0.37-0.5 2.85-2.44 4.6-4.65 6.15q-0.24 0.17-0.49 0.33c-1.26 0.81-2.58 1.45-3.48 2.82-0.87 1.33-2.32 2.11-3.94 2.43-0.62 0.13-1.23 0.14-1.57-0.48-0.33-0.59 0.11-1.08 0.47-1.47 0.92-0.99 2.19-1.37 3.44-1.73 3.35-0.99 6.17-2.76 8.27-5.58 0.43-0.58 0.88-1.18 1.04-2.21-2.78 1.87-5.75 2.56-8.73 3.26-1.64 0.38-3.04 1.47-4.74 1.76q-1.25 0.23-2.47 0.06c-0.49-0.08-1.04-0.31-1.15-0.89-0.12-0.61 0.38-0.92 0.82-1.18 1.55-0.9 3.26-0.89 4.95-0.68 2.94 0.36 3.77 0.32 6.54-0.65 0.06-0.72-0.55-0.91-1-1.13-2.06-1-4.31-1.18-6.53-1.51-0.22-0.03-0.49 0.19-0.74 0.31-1.89 0.9-3.83 1.14-5.82 0.34-0.49-0.2-1.04-0.42-1.07-0.99-0.03-0.66 0.58-0.93 1.09-1.1 1.34-0.43 2.77-0.58 4.06-0.03 1.72 0.72 3.51 1.01 5.31 1.37 1.92 0.37 3.93 0.56 5.3 2.25 0.27 0.34 0.57 0.07 0.85-0.05 3.09-1.46 5.93-3.29 8.27-5.83 0.33-0.36 0.62-0.74 0.73-1.21 0.86-3.63 3.38-5.65 6.65-7 1.87-0.78 3.53-1.89 4.91-3.53-0.49-0.29-0.84 0-1.18 0.06-2.68 0.5-5.36 0.7-7.99-0.13-3.08-0.97-4.3-4.85-2.34-7.35 0.78-0.99 1.92-1.51 3.03-2.02 0.79-0.36 1.6-0.65 2.44-0.98-1.9-1.37-2.61-1.4-4.42-0.26q-1.65 1.06-3.32 2.06c-0.58 0.34-0.8 0.7-0.7 1.43 0.37 2.7 0.07 5.28-1.64 7.55-0.62 0.83-0.89 1.8-1.04 2.85-0.49 3.61-1.8 6.88-4.37 9.54-1.68 1.73-2.78 1.65-4.23-0.25-0.32-0.42-0.61-0.37-1.02-0.26-1.08 0.29-2.19 0.28-3.3 0.18-3.72-0.31-5.8-2.65-5.65-6.45-1.45-0.46-3.05-0.8-3.88-2.32-1.36 0-2.1 0.43-2.29 1.97-0.2 1.61-1.07 3.05-2.5 4-0.4 0.28-0.32 0.69-0.52 1-0.31 0.49-0.72 0.84-1.38 0.6-0.41-0.15-0.75-0.39-0.64-0.85 0.13-0.58 0.35-1.25 1.11-1.13 0.91 0.14 1.4-0.36 1.89-0.94 0.97-1.17 1.66-2.46 1.76-4.06-0.98-0.11-1.89 0.15-2.77-0.17-0.4-0.14-0.53 0.24-0.78 0.4-0.67 0.45-1.34 0.36-1.77-0.28-0.44-0.65-0.09-1.22 0.5-1.6 0.68-0.44 1.21-0.25 1.5 0.49 0.12 0.3 0.26 0.46 0.58 0.47 1.67 0.08 3.3 0.01 4.86-0.57 0.09-0.59 0.11-1.01-0.49-1.35-2.81-1.58-3.69-3.82-2.86-6.97 0.08-0.29 0.29-0.57 0.11-1.03q-2.05 0.23-4.16 0.47-0.06 0.01-0.12 0.02c-2.4 0.11-4.84-0.01-6.61 2.17-0.47 0.58-1.37 0.74-2.13 0.97-1.36 0.42-2.66 0.71-3.82 1.83-1.33 1.29-3.35 1.29-5.19 1.02-0.88-0.13-1.1-0.72-0.67-1.49 0.56-0.99 1.46-1.54 2.52-1.84 1.25-0.36 2.53-0.41 3.76-0.07 2.79 0.79 4.7-0.82 6.69-2.09-0.01-0.47-0.23-0.51-0.41-0.53-3.28-0.32-6.3-1.53-9.3-2.77-0.62-0.26-1.07-0.23-1.61 0.2-2.09 1.68-4.42 2.77-7.16 2.77-0.47 0-0.67 0.33-0.95 0.61-1.75 1.78-3.95 1.76-6.18 1.44-0.48-0.07-0.92-0.38-0.97-0.92-0.06-0.68 0.24-1.25 0.76-1.66 0.94-0.74 2.09-0.95 3.22-1.09 1.23-0.15 2.46 0.05 3.6 0.56 0.5 0.22 0.97 0.32 1.48 0.19 2.13-0.5 4.08-1.41 5.9-2.58-0.12-0.49-0.49-0.49-0.76-0.59-1.54-0.54-3.12-0.88-4.7-1.24-0.87-0.2-1.55-0.09-2.32 0.43-2 1.35-5.45 0.93-7.18-0.76-0.78-0.75-0.58-1.59 0.54-1.96 1.89-0.63 3.8-0.43 5.54 0.44 1.38 0.68 2.78 1.02 4.27 1.21 2.09 0.26 4.07 0.96 6 1.81 2.09 0.93 4.17 1.89 6.36 2.46 0.5-0.48 0.18-0.87 0.02-1.25-0.62-1.47-1.75-2.52-3.01-3.43-0.61-0.44-1.27-0.81-1.88-1.25-0.84-0.6-1.64-0.84-2.74-0.56-1.65 0.42-3.21-0.23-4.63-1.07-0.64-0.39-1.19-0.44-1.88-0.17-2.27 0.88-4.6 1.11-6.99 0.58q-2.33-0.53-3.97-2.25c-0.43-0.46-0.83-0.64-1.44-0.35-0.43 0.21-0.95 0.23-1.4 0.08-1.06-0.36-2.1-0.56-3.22-0.25-0.52 0.14-1.04-0.12-1.33-0.6-0.49-0.83-1.27-1.05-2.15-1.27-1.97-0.49-3.23-1.77-3.66-3.78-0.2-0.89-0.41-1.78-0.47-2.68-0.14-1.89-0.96-3.41-2.35-4.64-0.5-0.45-0.54-0.75-0.02-1.23 1.78-1.66 2.53-3.65 2.06-6.11-0.31-1.63-0.04-3.22 0.93-4.73-0.64-0.26-1.18-0.49-1.79-0.74-0.97 1.17-2.32 1.24-3.72 1.29-1.58 0.06-3.19-0.35-4.75 0.42-0.55 0.27-1.4 0.21-1.68-0.64-0.19-0.6 0.1-1.07 0.67-1.35 0.31-0.15 0.7-0.21 0.89 0.04 0.92 1.22 2.21 0.8 3.39 0.82q1.24 0.01 2.49-0.04c0.71-0.02 1.39-0.15 2-0.75-1.14-0.58-2.22-1.11-3.27-1.69-0.35-0.2-0.59 0-0.89 0.05-0.96 0.17-1.69-0.28-1.78-1.09-0.12-1 0.58-1.34 1.35-1.46 0.92-0.15 1.4 0.39 1.42 1.3 0.04 1.02 1.04 0.87 1.54 1.38 0.46-0.47 0.41-1 0.23-1.45-0.58-1.53-0.86-3.33-3.1-3.43-0.67-0.03-0.97-0.65-0.91-1.32 0.06-0.63 0.45-1.01 1.1-1.01 0.67-0.01 1.28 0.33 1.23 1-0.07 0.93 0.51 1.39 0.96 2.03 0.93 1.32 1.81 2.7 1.23 4.48 0.28 0.13 0.54 0.22 0.78 0.36 1.79 1.06 3.47 1.56 4.89-0.62 0.3-0.46 0.94-0.69 1.55-1.11-1.65-2.71-1.49-5.52-0.21-8.41-0.98-0.23-1.97-0.42-2.92-0.71-2.45-0.76-4.32-2.39-6.07-4.19-1.97-2.02-3.57-4.33-5.2-6.61-1.28-1.79-2.78-3.35-4.65-4.52q-0.34-0.21-0.53-0.72c3.22 0.06 6.23 0.87 9.17 2.05 2.92 1.19 5.66 2.7 8.44 4.73-1.72-3.09-3.43-5.77-6.44-7.35-3.71-1.93-7.36-3.96-11.06-5.9-6.08-3.18-9.28-8.43-10.78-14.91-0.03-0.13 0.05-0.29 0.07-0.41 0.51-0.2 0.7 0.17 0.92 0.43 2.74 3.28 6.1 5.82 9.7 8.08 3.88 2.43 7.77 4.87 10.94 8.26 0.32 0.34 0.64 0.69 1.1 1.19-0.3-1.6-0.76-2.98-1-4.4-0.48-2.8-0.62-5.64-0.88-8.46q-0.18-2-0.38-4c-0.04-0.38-0.25-0.83 0.2-1.06 0.46-0.23 0.72 0.19 1 0.45 5.41 5 8.56 11.2 9.89 18.42 0.73 3.99 1.5 7.96 2.11 11.97q0.23 1.58 1.17 2.94c0.73-0.55 1.41-1.07 2.11-1.57 0.23-0.16 0.27-0.38 0.25-0.62-0.24-2.93 0.87-5.39 2.7-7.66-1.41-1.19-2.62-2.47-3.71-3.87-3.2-4.16-3.83-8.76-2.64-13.77 0.9-3.75 1.91-7.49 1.8-11.4-0.02-0.97 0.49-1.13 1.19-0.61 4.26 3.15 8.01 6.7 9.33 12.11 0.21 0.82 0.29 1.67 0.47 2.7 0.55-1.06 1.07-1.93 1.66-2.76 0.63-0.9-0.29-3.38-1.32-3.8-1.82-0.73-2.38-2.43-2.95-4.06-0.27-0.76-0.32-1.61-0.61-2.39-0.19-0.52-0.14-1.08 0.4-1.34 0.49-0.22 1.02-0.1 1.36 0.39 0.35 0.51 0.27 1.11-0.18 1.38-0.77 0.47-0.53 1-0.37 1.62 0.29 1.12 0.82 2.13 1.49 3.06 0.37 0.51 0.85 0.93 1.66 0.85 0.24-1.2 0.38-2.39 0.05-3.6-0.19-0.67-0.22-1.3 0.55-1.56 0.58-0.2 1.15-0.03 1.41 0.56 0.28 0.64 0.19 1.25-0.58 1.55-0.22 0.08-0.51 0.11-0.5 0.41 0.04 1.35-0.66 2.72 0.14 4.07 0.98 0.01 1.26-0.81 1.75-1.43-0.22-0.36-0.46-0.67-0.62-1.02-0.2-0.44-0.1-0.87 0.3-1.16 0.42-0.3 0.91-0.35 1.32-0.02 0.37 0.3 0.55 0.79 0.24 1.17-0.83 1.04-1.07 2.58-2.53 3.11-0.67 0.25-0.35 0.62-0.14 1.16 1.38-1.5 2.96-2.53 4.54-3.57 0.33-0.22 0.43-0.45 0.35-0.88-0.47-2.82 1.76-5.59 4.6-5.92 1.83-0.21 3.43 0.24 4.91 1.29 0.38 0.27 0.8 0.51 1.15 0.82 1.35 1.19 2.87 1.74 4.68 1.47 0.42-0.06 0.99-0.14 1.28 0.07 1.96 1.38 4.23 0.75 6.34 1.09 2.95 0.48 5.39 2.31 5.37 5.71 0 0.51 0.2 0.8 0.67 0.98 3.78 1.43 5.04 4.48 5.28 8.19q0.01 0.18 0.04 0.35c0 0.03 0.04 0.05 0.28 0.33 1.24-6 4.24-10.09 10.74-10.31q-0.02-4 4.24-3.87c1.99 0.06 3.91 0.55 5.82 1.09 0.36 0.11 0.7 0.35 1.12 0.26 0.18-0.42-0.08-0.78-0.16-1.15-0.71-3.51 0.22-5.77 3.2-7.7q0.54-0.36 1.08-0.73c2.06-1.43 2.55-2.72 1.99-5.19-0.11-0.45-0.41-0.98 0.06-1.33 0.48-0.35 0.74 0.26 1.1 0.43 2.9 1.37 5.99 1.8 9.13 1.61 2.49-0.15 4.96-0.53 7.43-0.82 2.26-0.27 4.5-0.12 6.74 0.15 4.79 0.58 11.38 6.15 10.88 12.41-0.05 0.71 0.23 1.2 0.84 1.68 2.47 1.96 3.32 4.61 3.01 7.69q-0.07 0.7-0.13 1.4c-1.12 2.03-2.67 7.92-2.43 9.36 0.94-1.08 1.61-2.25 2.18-3.52 0.86-1.94 0.8-3.88 0.22-5.86zm-54.41 33.91c-3.24 0.2-6.33 0.22-9.4-0.02q-4.58-0.34-9.05-1.84c0.06 1.09 0.61 1.48 1.43 1.66 0.92 0.2 1.82 0.5 2.75 0.67 1.71 0.31 3.26 1.31 4.96 1.45 2.87 0.24 5.76-0.07 8.63-0.36 2.21-0.23 3.55-0.36 4.55 0.02-4.19 0.89-8.24 0.89-12.6 0.87 2.83 2.04 4.25 4.59 4.92 7.56 0.18 0.79 0.53 1.08 1.25 1.11 0.44 0.02 0.87 0.06 1.3 0.05 1.44-0.04 2.08-0.6 2.29-2 0.07-0.46 0.3-0.81 0.6-1.14 1.93-2.13 4.25-3.64 7.04-4.38 2.24-0.6 4.52-0.78 6.81-0.94 0.77-0.05 1.35-0.14 1.49-1.1 0.14-0.86 0.82-1.41 1.53-1.89q1.79-1.19 3.92-1.6c1.29-0.26 2-1.86 1.31-2.93-1.86-2.86-2.29-5.96-1.34-9.2 0.46-1.56 1.13-3.03 2.85-3.71 0.58-0.23 1.03-0.76 1.61-1.21-0.19-0.14-0.27-0.22-0.37-0.28q-0.2-0.13-0.42-0.22c-3.24-1.51-6.64-2.42-10.22-2.57-5.82-0.26-11.63-0.23-17.44-0.27-2.65-0.02-5.26-0.47-7.85-0.98-0.27-0.05-0.66-0.1-0.61-0.56 0.31-0.17 0.62-0.11 0.93-0.03 3.11 0.8 6.29 1.04 9.48 1.1 4.55 0.08 9.1-0.03 13.65 0.04 3.67 0.06 7.31 0.45 10.71 2.04 1.04 0.48 2.1 0.92 3.21 1.41-0.17-1.95 0.65-3.09 2.75-3.98 1.64-0.7 3.39-0.63 5.29-0.66-0.76-1.48-1.81-2.54-2.79-3.64-1.98-2.22-4.23-4.15-6.61-5.92-2.78-2.08-5.53-4.25-8.76-5.62-1.81-0.77-3.69-1.5-5.73-0.77-0.39 0.13-0.68-0.1-1-0.26-2.72-1.32-5.56-2.25-8.59-2.56q-1.52-0.15-2.87 0.55c-0.71 0.36-0.86 0.96-0.8 1.69 0.07 0.74 0.62 0.8 1.18 0.93q0.98 0.21 1.92 0.57c0.37 0.15 0.67 0.46 0.57 0.94-0.1 0.46-0.49 0.61-0.89 0.65-0.84 0.07-1.55-0.25-2.16-0.8-0.3-0.27-0.58-0.5-1.01-0.56-3.14-0.48-7.43 1.93-8.61 4.9-0.64 1.62-1.17 3.28-1.84 4.88-0.38 0.9-0.05 1.26 0.74 1.42 2.31 0.46 4.64 0.82 7 1 4.47 0.34 8.94-0.34 13.4 0.22 1.15 0.14 2.34 0.16 3.33 0.91-0.78 0.02-1.53-0.12-2.29-0.22-3.47-0.45-6.95-0.2-10.42-0.17-4.15 0.03-8.26-0.26-12.31-1.66q-2.64 6.82-9.54 9.62c0.29 0.33 0.47 0.59 0.7 0.8 1.77 1.66 2.65 3.71 2.55 6.15q-0.06 1.77-0.18 3.55c-0.09 1.14-0.14 2.29-0.05 3.43 0.07 0.84 0.45 1.34 1.28 1.64 2.42 0.86 4.93 1.24 7.46 1.58 3.11 0.42 6.24 0.17 9.36 0.24 0.28 0.01 0.62-0.14 1 0.4zm170.01-25.21c0.02-0.52 0.31-0.53 0.58-0.59 2.43-0.59 4.91-0.71 7.4-0.69 2.97 0.04 5.93 0.19 8.89-0.01 2.33-0.15 4.62-0.53 6.89-0.99 0.81-0.16 1.1-0.57 0.72-1.44-0.56-1.26-1.07-2.56-1.45-3.89-0.92-3.31-3.48-4.78-6.44-5.69-1.33-0.42-2.79-0.58-3.97 0.67-0.37 0.39-0.97 0.54-1.54 0.52-0.49-0.01-0.99-0.1-1.11-0.69-0.11-0.52 0.28-0.82 0.69-0.97q0.89-0.33 1.82-0.52c0.57-0.11 1.1-0.21 1.16-0.94 0.06-0.73-0.11-1.33-0.82-1.68-0.83-0.42-1.7-0.65-2.63-0.55-2.38 0.25-4.69 0.76-6.88 1.72-1.35 0.59-2.6 1.46-4.23 0.84-0.5-0.18-1.17 0.07-1.75 0.18q-1.95 0.36-3.67 1.32c-5.55 3.11-10.58 6.92-14.86 11.64-0.82 0.89-1.83 1.73-2.22 3.08 1.27 0.04 2.46-0.01 3.63 0.2q1.73 0.3 3.12 1.36c0.99 0.75 1.45 1.77 1.19 3.1 0.25-0.08 0.36-0.1 0.46-0.15 4.44-2.53 9.28-3.36 14.32-3.34q5.81 0.02 11.63 0 4.26-0.03 8.48-0.66c1.03-0.15 2.03-0.69 3.17-0.45-0.16 0.47-0.45 0.54-0.7 0.59-2.43 0.49-4.89 0.91-7.37 0.96-5.62 0.11-11.23 0.04-16.85 0.23-3.84 0.13-7.48 0.94-10.98 2.46-0.37 0.16-0.86 0.24-0.98 0.8 0.16 0.11 0.31 0.23 0.48 0.32 4.05 2.06 4.7 5.61 4.17 9.64-0.2 1.56-0.91 2.93-1.78 4.23-0.21 0.31-0.67 0.73-0.34 1.02 0.7 0.61 0.91 1.83 2.17 1.78 0.34-0.01 0.69 0.15 1.02 0.29 1.84 0.74 3.76 1.4 4.24 3.71 0.08 0.38 0.41 0.44 0.74 0.46q0.65 0.04 1.3 0.09c3.92 0.33 7.84 0.74 11.05 3.37 1.07 0.88 2.52 1.63 2.62 3.19 0.06 1.03 0.58 1.35 1.32 1.67 0.8 0.34 1.63 0.18 2.45 0.12 0.64-0.04 0.94-0.32 1.09-0.99 0.5-2.27 1.43-4.34 3.06-6.05 0.5-0.52 1.06-0.99 1.75-1.61-4.26 0.02-8.3 0.04-12.24-1.01 2.87 0.03 5.74 0.21 8.6 0.42 1.66 0.12 3.39 0.45 4.94-0.05 2.4-0.78 4.81-1.49 7.26-2.05 0.86-0.19 1.22-0.69 1.31-1.65-6.05 2.07-12.14 2.19-18.29 1.69 1.43-0.2 2.86-0.23 4.29-0.2 4.13 0.12 8.18-0.34 12.15-1.43 2.4-0.66 2.55-0.9 2.54-3.35q-0.01-1.13-0.13-2.25c-0.13-1.3-0.15-2.6-0.14-3.91 0.01-2.14 0.83-3.91 2.3-5.42 0.32-0.32 0.79-0.55 0.82-1.1-4.54-1.83-7.66-5.05-9.44-9.56-2.77 1.02-5.57 1.47-8.39 1.57-3.4 0.13-6.8 0.07-10.2 0.02-2.16-0.03-4.27 0.24-6.42 0.62zm-168.21 35.06c1.05-0.09 1.94-0.37 2.85-0.22 0.32 0.05 0.64 0.1 0.75 0.48 0.1 0.35-0.08 0.6-0.31 0.84-0.71 0.76-2.11 0.99-3.07 0.47-0.31-0.17-0.54-0.44-0.95-0.2-1.16 0.69-2.35 1.34-3.18 2.42-2.41 3.14-2.38 7.41-0.07 11.1 1.69 2.71 4.08 5.11 4 8.72 3.41-0.47 6.45 0.47 9.41 1.77 0.66 0.28 1.01 0.09 1.4-0.39 0.99-1.21 2.24-2.11 3.52-2.98 0.21-0.15 0.44-0.36 0.75 0.02-1.47 1.22-3.11 2.24-4.29 3.87 2.01 1.05 4.02 1.62 6.22 1.16 5.42-1.14 9.64-3.85 11.87-9.13 0.21-0.49 0.43-0.85 1.05-0.49 1.65 0.95 3.21 0.51 4.71-0.37 2-1.18 3.33-2.88 3.93-5.13 0.37-1.42 0.58-2.89 1.08-4.25 0.46-1.25 0.08-2.27-0.34-3.46-3.7 1.52-7.11 3.4-10.51 5.33-1.8 1.02-3.43 2.24-4.85 3.76-0.73 0.78-1.49 1.53-2.25 2.28-0.3 0.3-0.65 0.47-1.06 0.23-0.38-0.22-0.35-0.59-0.31-0.95 0.43-3.77 1.92-6.88 5.37-8.84 2.76-1.57 5.55-3.03 8.58-4 1.59-0.5 3-1.3 4.24-2.75-1.16 0.06-2.12-0.58-2.88-0.5-1.89 0.22-3.81-0.08-5.65 0.38-3.83 0.95-7.32 2.7-10.55 4.9-5.1 3.49-9.97 7.26-14.02 12-0.27 0.32-0.5 0.93-1.26 0.57 3.35-4.27 7.44-7.58 11.68-10.76 4.25-3.18 8.73-5.84 13.85-7.34-0.67-1.02-1.38-0.91-2.3-0.55-5.75 2.22-10.94 5.37-15.7 9.27-0.64 0.52-1.2 1.19-2.25 1.58 0.21-0.33 0.27-0.47 0.37-0.56 5.1-4.55 10.73-8.28 17.16-10.69 1.12-0.42 1.75-0.88 1.46-2.18-0.1-0.04-0.23-0.13-0.38-0.16-3.31-0.79-5.98-2.31-6.82-5.93q-0.11-0.49-0.6-0.42c-1.4 0.2-4.73 1.97-4.82 3.58-0.04 0.77-0.56 1.07-1.27 1.16q-1.65 0.18-3.3 0.4c-3.48 0.46-6.86 1.22-9.66 3.55-0.72 0.6-1.67 1.09-1.6 2.41zm178.95 23.63c-0.29-2.39 0.87-4.08 1.93-5.79q0.98-1.55 2.03-3.06c1.52-2.25 1.94-4.71 1.49-7.36-0.49-2.86-2.26-4.69-4.71-6-0.37-0.2-0.62-0.15-0.97 0.08-0.98 0.65-1.97 0.39-2.89-0.18-0.36-0.23-0.72-0.55-0.56-1.07 0.15-0.48 0.6-0.49 0.98-0.48 0.85 0.03 1.7 0.11 2.55 0.18 0.23-0.73-0.18-1.12-0.57-1.51-2.17-2.1-4.79-3.31-7.72-3.91-1.98-0.4-3.98-0.63-5.98-0.86-0.59-0.07-1.26-0.13-1.43-0.85-0.55-2.43-2.59-3.09-4.55-3.84-0.65-0.26-0.88 0.05-1.02 0.69-0.44 1.92-1.68 3.27-3.32 4.28-1.18 0.74-2.51 1.11-3.97 1.44 0.6 1.16 1.3 1.99 2.41 2.45 5.96 2.47 11.3 5.92 16.1 10.2 0.2 0.18 0.55 0.3 0.37 0.86-4.89-4.21-10.07-7.79-15.99-10.2-0.29 0.35-0.52 0.61-0.81 0.95 4.53 1.69 8.36 4.45 12.12 7.33 5.18 3.97 9.65 8.31 10.04 9.77-0.57 0.18-0.76-0.33-1.01-0.62-2.89-3.33-6.17-6.23-9.67-8.89-3.56-2.71-7.22-5.23-11.41-6.89-0.41-0.17-0.78-0.46-1.29-0.07-1.13 0.85-1.99 1.88-2.48 3.27 1.49 0.82 2.92 1.64 4.37 2.42 3.55 1.9 5.08 5.04 5.51 8.87 0.05 0.41 0.08 0.82-0.36 1.03-0.43 0.2-0.76-0.02-1.06-0.32q-0.55-0.54-1.07-1.1c-2.4-2.69-5.26-4.75-8.65-6.32-0.43 3.25-1.53 6.14-4.15 8.23 2.37 1.72 3.16 1.86 5.82 1 0.64-0.2 0.76 0.19 0.93 0.6 2.32 5.41 6.67 8.13 12.24 9.16 2.09 0.38 4.01-0.2 5.84-1.26-1.22-1.63-2.88-2.61-4.32-3.91 0.49-0.26 0.69-0.01 0.91 0.14 1.27 0.87 2.5 1.79 3.49 3 0.35 0.42 0.66 0.56 1.21 0.32 3-1.3 6.07-2.29 9.62-1.78zm-104.96-16.37c-0.31-1.86-0.31-1.89-2.03-1.85-2.93 0.08-5.29-1.08-7.18-3.26-0.42-0.49-0.8-0.61-1.42-0.46-3.59 0.86-6.98 0.15-10.16-1.55-2.72-1.45-4.4-4.68-3.84-7.42 0.19-0.93-0.39-1.14-0.78-1.62-0.42-0.53-0.84-0.18-1.27-0.04-0.84 0.29-1.52 0.82-2.21 1.35-1.67 1.25-2.66 2.99-3.62 4.77-0.93 1.74-1.24 3.59-1.11 5.5 0.27 3.89 2.68 6.7 4.96 9.59 3.71-3.64 7.43-5.9 8.97-5.37-1.43 0.45-2.7 1.04-3.88 1.82q-1.84 1.19-3.48 2.65c-1.4 1.25-1.41 1.24-0.58 2.86q0.09 0.18 0.21 0.38c4.16-4.92 9.68-7.28 15.72-9.14-0.14 0.49-0.3 0.57-0.51 0.62-2 0.48-3.87 1.31-5.72 2.18-3.34 1.57-6.47 3.46-8.83 6.4-0.21 0.27-0.5 0.49-0.41 0.92 0.31 1.47 0.01 2.91-0.28 4.34-0.06 0.35-0.2 0.69 0.27 0.9 2.31 1 3.74 2.97 5.34 4.77 1.79 2 3.44 4.18 5.88 5.45 3.74 1.95 7.57 1.94 11.37 0.11 0.92-0.45 1.7-0.44 2.52 0.18 0.65 0.48 1.41 0.7 2.23 0.63 3.13-0.3 5.99-1.32 8.46-3.3 1.1-0.87 1.75-1.99 1.83-3.48-3.83-0.31-6.88-2.26-9.81-4.43-3.57-2.65-5.2-6.36-5.59-10.66-0.15-1.64 0.61-2.37 2.26-2.55q1.34-0.15 2.69-0.29zm-63.31-67.38c-3.22 2.28-3.72 6.71-1.13 8.97 0.3 0.26 0.57 0.54 1.04 0.42 2.66-0.66 5.1 0.18 7.23 1.56 5.73 3.72 11.34 7.62 15.63 13.09 0.65 0.84 1.17 1.84 2.07 2.54 1.73-2.82 4.28-1.88 6.77-1.52-0.16-0.48-0.28-0.85-0.42-1.22-0.82-2.26-0.96-4.58-0.27-6.88 0.35-1.16 0.32-2.2-0.05-3.33-1.93-6.03-4.83-11.54-8.86-16.44-0.36-0.44-0.94-0.79-0.83-1.52 5 5.46 8.46 11.8 10.66 18.86 0.62-0.34 0.72-0.81 0.58-1.36-1.28-4.9-2.9-9.66-6.01-13.76-0.33-0.45-0.68-0.88-1.14-1.46 0.69 0.05 0.86 0.44 1.09 0.72 2.44 2.95 4.05 6.36 5.38 9.93 0.7 1.88 0.77 4.01 2.14 5.66 0.15 0.18 0.15 0.53 0.16 0.8 0.07 2.78 0.99 5.35 2.02 7.88 0.6 1.45 1.3 2.87 2.35 4.11q-0.09-1.52 0.13-2.97c0.4-2.52 1.25-4.9 2.11-7.28 1.11-3.07 0.39-6.84-1.84-8.51-1.13-0.85-1.61-1.81-1.54-3.1 0.29-5.55-5.8-10.65-10.08-11.15-2.65-0.31-5.28-0.38-7.92-0.02-4.08 0.56-8.16 1.2-12.25 0.08-0.98-0.26-1.95-0.56-3.05-0.88 0.14 1.36 0.3 2.68-0.55 3.82-0.78 1.04-1.79 1.85-2.85 2.67 1.57 1.95 3.64 3.1 5.67 4.3 4.56 2.67 8.8 5.74 12.18 9.86 0.26 0.33 0.72 0.63 0.41 1.2-0.58-0.13-0.78-0.61-1.06-0.96-1.41-1.78-3.17-3.19-4.86-4.68-4.01-3.53-9.1-5.56-12.91-9.43zm131.97-2.01c-0.01 0.58-0.46 0.82-0.73 1.19-3.2 4.19-4.89 9.04-6.18 14.07-0.14 0.54 0.01 1 0.65 1.28 0.96-3.58 2.52-6.87 4.28-10.09 1.74-3.2 3.81-6.15 6.37-8.74-0.03 0.7-0.54 1.1-0.92 1.56-4.07 4.93-6.95 10.49-8.87 16.56-0.26 0.81-0.48 1.63-0.16 2.54 0.83 2.43 0.77 4.89-0.04 7.34-0.13 0.42-0.42 0.84-0.24 1.33 2.46-0.43 4.93-1.15 6.61 1.62 0.57-0.76 1.06-1.42 1.56-2.08 2.14-2.86 4.69-5.33 7.52-7.5 2.87-2.22 5.65-4.59 8.86-6.32 2.14-1.15 4.4-2.01 6.93-1.35 0.47 0.12 0.74-0.19 1.03-0.44 2.67-2.36 2.05-7.11-1.07-8.84-6.15 5.2-13.85 8.38-18.89 14.96 0.09-1.13 0.83-1.8 1.48-2.49 3.55-3.78 7.73-6.73 12.23-9.25 1.69-0.95 3.24-2.07 4.56-3.63-2.19-1.64-4.26-3.3-3.35-6.49-7.05 2-8.18 1.75-14.68 0.88-2.28-0.31-4.56-0.34-6.86-0.29-6.11 0.13-12.4 6.07-11.87 11.87 0.09 0.99-0.38 1.75-1.25 2.38-2.08 1.5-2.99 4.65-2.24 7.1 0.64 2.11 1.33 4.23 0.49 6.48 1.3 0.84 2.64 1.42 4.17 1.63 0.37-1.03 0.65-2.02 1.07-2.95 1.11-2.47 0.48-5.42 2.15-7.73q0.02-0.05 0.02-0.11c1.09-4.14 2.62-8.09 4.96-11.7 0.67-1.04 1.4-2.04 2.41-2.79zm-58.83 34.01c2.36-3.06 2.78-3.24 5.73-2.52 0.86-1.5 1.39-3.5 3.52-3.56 2.38-0.08 3.42 1.74 4.19 3.74 2.27-2.28 4.74-3.71 7.99-2.66 3.24 1.04 4.39 3.69 4.94 6.71 3.35-0.48 4.75 1.12 5.99 6.84 1.99-2.67 3.13-5.5 3.38-8.65 0.36-4.54-1.17-8.53-3.82-12.13-2.91-3.92-6.38-6.83-11.7-6.25-0.38 0.04-0.7-0.07-0.92-0.41-1.41-2.15-3.72-2.53-6.08-3.18 0.27 0.84 0.63 1.51 0.39 2.3-1.26-1.99-1.53-2.29-2.09-2.25 0.68 2.05 1.51 4.03 1.75 6.21 0.23 2.13 0.14 4.22-0.07 6.33-0.22-0.6-0.24-1.21-0.21-1.82 0.12-3.47-0.39-6.82-1.85-10.01-0.23-0.51-0.37-0.99-1.1-0.61 0.79 2.16 1.59 4.33 1.69 6.73-0.44-0.1-0.39-0.33-0.42-0.5-0.38-1.85-0.8-3.69-1.59-5.41-0.19-0.41-0.37-0.87-0.94-0.63-2.23 0.93-4.26 2.07-4.89 4.71-0.17 0.68-0.15 1.05 0.54 1.41 0.93 0.49 1.58 1.33 1.87 2.35 0.2 0.71 0.2 1.48-0.63 1.83-0.74 0.31-1.39 0.06-1.87-0.59-0.5-0.69-0.79-1.47-0.8-2.31-0.01-0.8-0.36-1.04-1.14-1.12-2.23-0.2-4.11 0.5-5.77 1.94-1.91 1.67-3.37 3.64-4.24 6.04q-1.07 3.01-1.9 6.09c-0.95 3.4-1.43 6.87-1.27 10.41 0.02 0.39 0 0.8 0.51 0.94 1.11 0.31 2.06 0.95 3.06 1.6 1.39-2.13 3.29-3.67 5.43-4.9 0.69-0.39 0.87-0.84 0.86-1.59-0.09-4.21-1.4-8.1-3.03-11.91-0.1-0.24-0.43-0.47-0.01-0.96 1.62 3.38 2.81 6.77 3.45 10.58 0.81-1.59 0.53-2.95 0.27-4.31-0.26-1.35-0.67-2.65-1.11-3.96-0.43-1.29-1.18-2.42-1.63-3.69 2.24 2.63 2.86 5.9 3.52 9.17zm1.02-16.42c-1.02-2.36-4.36-4.99-6.81-5.61-4.96-1.25-8.85 1.09-12.72 3.65 1.53 2.44 3.03 4.81 3.72 7.65-0.51-0.05-0.43-0.34-0.51-0.55-0.82-2.17-1.79-4.28-3.18-6.16-0.25-0.34-0.51-0.99-1.15-0.4 0.5 0.85 1.3 1.49 1.48 2.61-0.76-0.3-0.95-0.95-1.27-1.44-0.49-0.79-0.94-0.95-1.8-0.46-1.79 1.03-3.71 1.71-5.81 1.89-0.88 0.07-1.81-0.1-2.68 0.29-0.23 2.63 0.54 5.03 1.52 7.37 1.88 4.5 1.11 8.64-1.58 12.54-0.7 1.01-1.38 2.02-2.11 3.09 1.87 1.39 3.12 3.19 3.21 5.47 0.07 1.68-0.17 3.4-0.52 5.05-0.57 2.71-0.9 5.35 0.64 7.87 0.11 0.17 0.3 0.43-0.26 0.62-0.04-0.06-0.1-0.2-0.18-0.33-1.52-2.5-1.92-5.08-1.16-7.99 0.95-3.65 1.28-7.32-2.37-9.97-0.51-0.36-0.38-0.88-0.06-1.37q1.01-1.53 2-3.08c1.47-2.31 2.38-4.76 2.29-7.57-0.08-2.34-1.2-4.34-1.85-6.83-0.79 2.55-2.35 4.25-3.71 6.09-1.23 1.66-2.17 3.47-2.7 5.48-0.37 1.38-0.6 2.81-0.13 4.2 0.36 1.07 0.32 2.03-0.08 3.08-0.87 2.24-0.86 4.46 0.23 6.66 0.67 1.37 1.61 2.53 2.68 3.59 0.57 0.56 0.78 1.14 0.44 1.91-0.29 0.64-0.18 1.31-0.01 1.97 0.69 2.56 2.37 4.2 4.76 5.22 2.71 1.15 5.47 1.54 8.48 0.69-2.57-3.92-3.03-7.79-0.55-11.78 0.46-0.75 0.42-1.58 0.2-2.4-0.44-1.64-1.53-2.92-2.38-4.34-2.39-3.99-1.22-8.45 2.82-10.75 0.54-0.3 0.81-0.66 0.85-1.28 0.06-0.95 0.11-1.9 0.3-2.82 0.93-4.6 6.83-7.48 10.9-6.66 0.58 0.12 0.87 0.01 1.2-0.4 2.01-2.5 4.15-4.82 7.86-4.8zm43.38 66.26q-0.17 0.06-0.33 0.14c-5.11 2.78-10.23 2.65-15.33-0.02-0.28-0.14-0.51-0.27-0.88-0.15q-2.56 0.88-5.04-0.3c-0.16 0.26-0.26 0.47-0.39 0.66-2.87 4.36-7.09 5.96-12.1 5.83-1.72-0.04-3.47-0.38-4.68-1.68-1.27-1.36-2.72-1.08-4.24-0.99-0.15 1.98-1.08 3.41-2.6 4.52-1.82 1.31-3.81 2.25-5.99 2.68-1.01 0.21-1.01 0.63-0.73 1.39 1.01 2.76 3.32 4.5 6.3 4.55 1.18 0.02 1.82 0.29 2.43 1.43 1.47 2.79 4.62 3.98 8.21 2.95 4.97-1.44 9.57-0.98 13.92 1.84 0.05 0.04 0.15 0 0.28-0.01 1.4-1.8 3.21-3.18 5.12-4.47 0.89-0.6 2.43-0.69 2.57-1.81 0.14-1.05-0.82-2.07-1.41-3.04-0.59-0.95-1.28-1.83-1.92-2.74 1.97 1.44 2.94 3.57 4 5.62 0.75-0.26 0.96-0.66 0.73-1.46-0.8-2.79-2.55-5.03-4.12-7.39-0.46-0.69-1.14-1.24-1.48-2.22 1.71 1.36 3.99 5.06 6.25 10.03 1.32-0.82 1.29-0.81 0.71-2.17-0.62-1.48-1.47-2.82-2.33-4.16 1.68 1.24 2.28 3.22 3.34 4.97 1.32-1.31 2.83-2.16 4.36-2.99 1.29-0.69 2.57-1.41 3.63-2.43 1.58-1.53 2.65-3.28 1.82-5.6-0.35-0.98-0.72-1.91-0.1-2.98zm-15.11-0.58c0.7 0.56 1.32 0.92 2.01 1.09 2.63 0.61 5.27 0.98 7.96 0.4 2.79-0.61 5.39-1.54 6.9-4.26 0.33-0.59 0.94-0.63 1.57-0.62 1.97 0 3.94 0.07 5.91-0.23 3.72-0.57 6.62-2.21 8.04-5.91 0.66-1.71 0.79-3.53 1.18-5.29 0.14-0.6-0.23-0.75-0.63-0.95q-1.64-0.84-3.27-1.69c1.59-0.11 2.75 0.88 4.16 1.56 0.79-2.92 2.38-5.16 5.08-6.53-2.62-2.36-3.98-4.39-4.58-7.67-0.36-1.93-0.42-3.92-0.81-5.85-0.56-2.69-1.65-5.12-4.02-6.73-0.93-0.63-1.94-1.05-3.18-0.68 0.52 2.93 0.66 5.81-0.56 8.68 1.58-0.1 2.98-0.92 4.78-0.15-2.22 0.26-4.24 0.07-5.8 1.56 0.7 0.88 1 1.7 0.79 2.74-0.61 2.88-1.9 5.25-4.62 6.66q-1.68 0.87-3.36 1.76c-0.3 0.16-0.64 0.24-0.68 0.71-0.07 0.81-0.45 1.54-0.86 2.29 4.56-0.54 9.52 0 10.51 1.13-0.08 0.02-0.16 0.07-0.22 0.05-4.64-1.32-9.22-1.3-13.76 0.5-0.49 0.19-0.63 0.48-0.73 0.91 7.88-1.15 15.12-0.72 17.08 1.19-2.87-1.19-5.7-1.28-8.52-1.48-2.9-0.21-5.75 0.05-8.54 0.85-1.22 0.34-1.8 1.15-1.81 2.38 0 1.53-0.4 2.95-1.05 4.32-1.93 4.07-4.82 7.19-8.97 9.26zm24.15-46.05c-2.68 1.07-4.94 2.82-7.34 4.31 2.12-2.02 4.55-3.57 7.26-4.82-0.49-1.77-1.21-3.44-1.54-5.22-0.35-1.86-0.05-3.69 0.05-5.55-4.28 0.65-5.77 0.33-9.53-2.04-0.93-0.59-1.88-1.17-2.93-1.54-2.03-0.72-4.08-0.95-6.31-0.27 4.24 6.45 5 12.97 1 19.81 0.79-0.21 1.42-0.4 2.07-0.54 1.29-0.28 2.71-0.53 3.67 0.56 0.99 1.11 0.31 2.4-0.23 3.54-1.31 2.8-3.37 5.02-5.9 6.68-1.74 1.14-2.71 2.41-2.9 4.51-0.17 1.93-0.96 3.75-1.77 5.73 2.84-1.39 5.58-1.95 8.54-1.53 2.73 0.39 3.82 1.3 4.2 4.04 1.39-0.06 3.08-1.12 3.14-2.35 0.09-1.73 1.11-2.37 2.46-2.92 0.72-0.3 1.37-0.78 2.08-1.12 2.32-1.12 3.51-3.11 4.22-5.45 0.21-0.65 0.37-1.38-0.2-2.05-0.55 0.43-1.06 0.86-1.61 1.23-0.34 0.23-0.76 0.3-1.11 0.02-0.41-0.31-0.36-0.78-0.21-1.2 0.3-0.77 0.95-1.16 1.72-1.29 0.42-0.07 0.75-0.17 0.98-0.54 1.97-3.25 1.77-6.64 0.82-10.19-4.58 2.06-8.34 5.14-12.33 7.85 3.72-3.22 7.58-6.25 12.15-8.34-0.08-0.44-0.1-0.87-0.45-1.32zm-18.59 29.96c-0.14 0.61-0.48 0.56-0.79 0.6q-2.42 0.33-4.58 1.5c-4.5 2.42-8.54 5.69-13.52 7.2 0.46 2.06 1.17 3.98 0.81 6.02-0.43-1.53-0.67-3.07-1-4.6-0.31-1.38-0.51-1.43-1.81-0.79 1.12 3.11 1.63 6.69 1.08 8.21-0.5-2.9-0.25-5.85-2.16-8.22 0.06 1.63 0.84 3.17 0.38 4.84-0.6-1.51-0.59-3.2-1.36-4.67-0.83 0.08-1.61 0.22-2.39 0.22-3.94-0.03-7.82-0.29-11.33-2.36-0.43-0.25-0.95-0.39-1.45-0.48-2.37-0.47-4.2-1.76-5.57-3.71-0.25-0.36-0.51-0.58-0.95-0.52q-1.53 0.19-3.05 0.39c-0.74 0.1-1.03 0.6-0.9 1.27 0.7 3.71 1.87 7.2 4.98 9.66 3.6 2.86 7.43 5.13 12.3 4.55 0.97-0.12 1.74 0.17 2.43 0.9 0.59 0.64 1.4 1 2.24 1.29 4.59 1.56 10.83-0.7 13.31-4.85 0.22-0.36 0.51-0.69 0.15-1.16-0.26-0.33-0.31-0.79 0.15-1.02 0.5-0.24 0.9 0.12 1.02 0.52 0.21 0.7 0.76 0.87 1.31 1.06 1.25 0.44 2.49 0.3 3.7-0.17 2.98-1.15 5.5-3 7.42-5.53 1.49-1.96 2.99-4.05 3.08-6.66 0.06-1.49 0.11-2.78 1.47-3.85 1.03-0.8 1.35-2.18 0.81-3.46-0.56-1.32-1.79-1.66-3.12-1.77q-1.66-0.13-3.31 0.01c-2.5 0.21-4.78 1.15-6.4 2.98-1.52 1.72-2.69 3.76-4.62 5.49 1.55 0.09 2.77 0.31 3.96-0.56 1.04-0.76 2.25-1.31 3.43-1.85q1.99-0.93 4.28-0.48zm-69.99 36.12q0.11-0.09 0.22-0.18 0.87 1.11 1.76 2.21c1.61 1.96 3.36 3.77 5.48 5.2 0.82 0.55 1.42 0.43 2.03-0.31 1.01-1.25 1.8-2.59 2.07-4.2 0.75-4.45-0.85-8.24-3.33-11.76-1.34-1.89-3.11-2.88-5.52-2.22-0.37 0.1-0.78 0.11-1.18 0.13-2.04 0.11-3.64-0.72-5.02-2.2-1.37-1.47-2.69-1.74-4.08-0.92 2.18 0.03 3.57 1.23 4.8 2.65q1.26 1.43 2.38 2.95c2.27 3.1 5.5 3.29 7.95 0.45 0.04-0.04 0.14-0.01 0.26-0.03 0.26 0.37 0.04 0.69-0.16 0.94-0.87 1.08-1.86 1.92-3.37 1.9-2.29-0.03-3.97-1.11-5.28-2.91-1.01-1.37-2.07-2.7-3.32-3.86-2.22-2.05-4.87-1.8-6.63 0.63-0.45 0.63-0.8 1.34-1.23 2.06 0.82 0.5 1.58 0.96 2.33 1.42 1.31-1.28 2.87-1.46 4.49-1.49-1.39 0.52-3.06 0.44-4.01 1.89 1.28-0.34 2.46-1.13 3.88-0.64-1.28 0.27-2.61 0.38-3.64 1.43q0.96 1.84 0.48 3.82c-0.08 0.32-0.1 0.61 0.18 0.87 0.88 0.85 1.3 1.98 1.67 3.1 0.97 2.89 1.29 6.04 3.48 8.46q-0.62-0.31-0.96-0.81c-0.89-1.32-1.6-2.71-1.97-4.28-0.42-1.77-0.82-3.55-1.73-5.15-0.24-0.43-0.44-0.91-1.34-0.94 2.31 3.69 1.82 8.18 4.4 11.6-0.85-0.45-1.16-1.26-1.52-2.02-0.98-2.06-1.34-4.3-1.92-6.47-0.21-0.8-0.45-1.59-1.17-2.2-0.52 0.44-1.1 0.77-1.26 1.5-0.71 3.07-0.69 6.02 1.2 8.76 0.85 1.24 1.84 2.38 2.87 3.46 0.85 0.89 1.87 1.65 3.25 0.88 0.48-0.26 0.78-0.04 1.05 0.42 0.46 0.8 1.1 1.47 2.02 1.74 2.95 0.85 5.62 0.32 7.98-1.68 0.84-0.72 1.3-1.67 1.61-2.71 0.13-0.45 0.09-0.77-0.42-0.92-1.21-0.35-2.16-1.13-3.14-1.86-1.34-1.01-2.32-2.32-3.17-3.77 1.98 2.1 3.79 4.39 6.82 5.25 0.12-0.99-0.3-1.59-0.94-1.91-2.32-1.17-4.05-3.01-5.77-4.86-0.98-1.04-1.82-2.2-2.58-3.42zm-15.3-74.07c-0.15 0-0.5-0.01-0.86 0-1.89 0.06-3.72 0.28-5.09 1.81-0.3 0.33-0.7 0.75-0.45 1.14 0.85 1.31-0.16 1.47-1 1.86-2.38 1.08-4.64 2.3-4.86 5.35q-0.03 0.29-0.07 0.59-0.52 4.32 2.12 7.8c0.37 0.49 0.83 1.01-0.02 1.57-1.16 0.77-1.38 1.53-0.85 2.82 0.44 1.07 1.1 1.98 2.09 2.65 1.31 0.87 2.75 1.37 4.25 1.76 0.77 0.2 1.19 0.55 0.78 1.44-0.42 0.9-0.02 1.48 0.86 1.87 1.5 0.65 3.01 0.56 4.54 0.21 0.71-0.16 1.35-0.21 2.02 0.26 0.68 0.48 2.72 0.1 3.04-0.61 0.73-1.59 1.91-2.94 2.5-4.55 1.14-3.08 1.43-6.27 1.17-9.57-0.3-3.94-0.61-7.95 2.14-11.34 0.41-0.51 0.14-0.97-0.12-1.42-0.72-1.27-1.49-2.52-2.16-3.82-0.34-0.64-0.83-1.01-1.48-1.26-1.29-0.49-2.62-0.56-3.97-0.37-0.65 0.09-1.37 0.35-1.44 1.04-0.11 1-0.65 1.02-1.4 0.92-0.5-0.07-1.02-0.09-1.74-0.15zm108.96 64.6c-0.39-0.68-0.71-1.31-1.1-1.9-1.72-2.58-4.49-2.89-6.77-0.77-1.26 1.16-2.32 2.49-3.31 3.87-2.2 3.05-5.25 3.64-8.21 1.51-0.44-0.32-0.73-0.29-1.16-0.05-1.3 0.71-2.23 1.67-2.66 3.15-1.04 3.54-1.17 6.93 1.15 10.07 1.05 1.42 1.47 1.52 2.87 0.51q3-2.16 5.2-5.14c1.02-1.37 1.19-1.54 1.95-1.86-2.36 3.26-4.75 6.25-8.21 8.19-0.74 0.42-1.33 0.95-1.19 2.09 3.02-0.86 4.83-3.18 6.81-5.25-1.45 2.36-3.26 4.34-5.81 5.39-1.02 0.42-1.09 0.87-0.73 1.76 1.04 2.6 3.98 4.28 7.36 4.17 1.71-0.06 3.19-0.58 4.08-2.17 0.28-0.48 0.61-0.62 1.07-0.36 1.04 0.59 1.87 0.16 2.72-0.45 0.72-0.52 1.17-1.28 1.77-1.91 2.75-2.85 3.81-6.19 2.96-10.11-0.2-0.94-0.6-1.67-1.49-2.13-0.86 0.85-1.07 1.95-1.33 3.02-0.47 2-0.9 4.01-1.82 5.87-0.33 0.68-0.58 1.43-1.41 1.75 1.36-1.91 1.94-4.11 2.47-6.32 0.37-1.58 0.66-3.18 1.63-4.54 0.17-0.24 0.24-0.5-0.13-0.72-0.73 0.28-0.94 0.99-1.24 1.61-0.76 1.59-1.06 3.31-1.53 4.98-0.5 1.77-1.32 3.36-2.74 4.58 1.13-1.63 2.05-3.33 2.54-5.28 0.56-2.25 0.99-4.58 2.66-6.38q0.21-0.24 0.12-0.55c-0.4-1.43-0.17-2.8 0.41-4.08-1.09-0.99-2.38-1.11-3.62-1.36 1.43-0.53 2.61 0.32 4.16 0.84-1.2-1.7-2.92-1.53-4.29-2.12 1.69 0 3.27 0.33 4.56 1.5 0.75-0.47 1.45-0.9 2.26-1.41zm-59.22-18.93c-0.23-0.95-0.35-1.52-0.5-2.07-0.87-3.14-2.57-5.93-3.67-8.96-0.45-1.23-1.15-1.56-2.36-1.6q-2.41-0.07-4.82 0.06c1.97-1.1 4.08-0.58 6.15-0.5-0.12-0.84-0.51-1.18-1.24-1.31-2.05-0.36-4.09-0.25-6.13 0-0.74 0.09-1.47 0.28-2.21 0.35-0.69 0.07-1.32 0.56-2.06 0.26 3.47-1.27 7.05-1.73 10.67-1.2-0.05-1.51-0.96-1.77-2.11-1.71-0.92 0.05-1.84 0.09-3.09 0.15 1.44-0.92 2.8-0.74 4.2-0.82-1.2-2.65-2.47-5.09-4.01-7.37-1.57-2.33-2.83-4.83-4.28-7.23-0.18-0.31-0.55-0.71-0.05-1.19 1.58 2.05 2.63 4.41 4.21 6.46-0.65-4.22-0.73-8.41 0.13-12.54 0.85-4.11 2.03-8.15 3.95-11.94-4.89-1.11-10.02 2.79-10.18 7.7-0.04 1.28-0.18 2.38-1.54 3.04-2.51 1.21-3.57 3.34-3.51 6.07 0.04 1.83 1.01 3.29 1.98 4.73 1.64 2.42 2.27 4.89 0.67 7.63-0.64 1.09-1.04 2.33-0.86 3.62 0.85 6.23 4.56 9.67 10.81 10.05 0.72 0.04 1.07 0.35 1.2 1.03 0.51 2.8 2.16 4.69 4.75 5.74 1.2 0.48 2.5 0.67 3.9 1.55zm29.56-60.46c0.78-2.31 0.5-4.69 0.48-7.03-0.02-1.71-0.3-1.97-1.92-2.45-2.22-0.67-4.47-1.27-6.66-2.05-2.31-0.82-4.53-1.87-5.88-4.11q-0.39-0.63-0.83-1.32c-0.15 0.18-0.28 0.28-0.35 0.42-1.58 3.26-4.27 4.1-7.68 3.73-1.87-0.2-3.73-0.63-5.64-0.55-2.35 0.11-4.17 1.42-4.65 3.45 0.75 0.35 1.56 0.6 2.1 1.27 0.25 0.3 0.49 0.63 0.22 1.06-0.26 0.42-0.66 0.44-1.05 0.37-0.81-0.17-1.45-0.62-1.84-1.36-0.22-0.39-0.47-0.54-0.93-0.53-2.48 0.05-5.46 2.88-5.64 5.47 2.1-0.43 4.22-0.46 6.19 0.27 3.06 1.14 5.99 2.59 7.02 6.1 0.22 0.75 0.67 0.42 1.11 0.49 0.28-1.77 0.96-3.24 2.35-4.31 2.19-1.69 4.6-2.52 7.39-2.1 2.7 0.4 5.28 1.03 7.11 3.26 0.27 0.33 0.52 0.29 0.83 0.22 1.11-0.26 2.2 0.04 3.28 0.22 1.94 0.32 3.59 1.32 5.22 2.59 1.48-3.55 2.4-7.04 1.67-10.79-0.11-0.58-0.3-1.15-1.09-1.07 0.1 2.96 0.63 5.96-0.81 8.75zm32.51 98.64c1.02 5.17 0.58 10.23-1.42 15.14 0.85 0.49 1.12-0.07 1.38-0.62 1.02-2.1 1.35-4.36 1.54-6.66 0.03-0.4-0.12-0.88 0.44-1.26 0.01 1.6-0.2 3.07-0.45 4.54-0.23 1.45-0.92 2.77-1.14 4.24 1.78-1.24 1.46-3.42 2.38-5.37 0.09 1.91-0.77 3.35-0.95 5.09 1.97-0.82 3.42-2.07 4.71-3.51 1.49-1.68 1.53-3.77 0.07-5.48-0.47-0.55-0.49-0.91 0.08-1.36 1.28-1 1.67-2.37 1.52-3.91-0.35-3.58-1.93-6.56-4.54-9.01-0.58-0.55-1.1-0.7-1.88-0.28-1.41 0.77-2.89 0.69-4.32-0.05-0.28-0.14-0.53-0.35-0.88-0.29-0.21 0.44 0.02 0.85 0.08 1.27 0.24 1.78 0.32 3.53-0.38 5.26-1.06 2.59-2.84 4.63-4.9 6.45-0.67 0.59-1.54 0.9-2.44 0.6-0.6-0.19-0.92-0.03-1.26 0.45-0.81 1.14-1.97 1.69-3.32 1.86-2.27 0.27-4.39-0.16-6.35-1.39-0.9-0.56-1.54-1.38-2.3-2.13-0.56 0.92-0.33 1.58 0.35 2.18 0.59 0.52 1.13 1.02 1.22 1.93 0.32 3.04 1.56 4.29 4.54 5.14 2.1 0.6 4.38 0.71 6.18 2.25 0.69 0.59 1.2 1.33 1.84 1.99 0.56-0.39 1.05-0.79 1.58-1.11 1.53-0.92 3.15-1.46 4.97-1.13 1.82 0.34 1.86 0.35 2.46-1.41 1.03-3.02 1.47-6.14 1.38-9.34-0.03-1.36-0.13-2.72-0.19-4.08zm-110.09 15.12c-2.03-4.94-2.43-9.96-1.53-15.11 0.08 0.71 0.03 1.43-0.02 2.15-0.27 4.03 0.08 7.97 1.52 11.79 0.34 0.92 0.85 1.28 1.88 0.98 1.96-0.55 3.74 0.05 5.41 1.09 0.52 0.32 1.02 0.7 1.55 1.07 1.16-1.67 2.57-2.88 4.5-3.39q2.06-0.53 4.13-1.06c2.14-0.56 3.61-2.13 3.81-4.33 0.11-1.11 0.48-1.94 1.35-2.62 0.71-0.56 0.85-1.27 0.3-2.08-3.17 4.18-10.08 4.94-12.54 1.01-1.57 0.64-2.81 0.04-3.89-1.13-0.49-0.52-1.03-0.99-1.49-1.53-2.06-2.46-3.57-5.11-3.18-8.51 0.08-0.74 0.45-1.48 0.24-2.29-2.59 0.92-2.59 0.93-5.83 0.11-0.53-0.14-0.82 0.2-1.13 0.48-2.77 2.48-4.37 5.57-4.68 9.29-0.12 1.45 0.3 2.75 1.5 3.69 0.63 0.49 0.55 0.87 0.05 1.44-1.34 1.53-1.34 3.65-0.05 5.21q1.69 2.02 3.99 3.32c0.25 0.15 0.51 0.4 0.91 0.14-0.27-1.5-1-2.93-0.87-4.51 0.36 0.92 0.58 1.88 0.85 2.82 0.58 2.07 0.64 2.13 1.65 2.06-0.53-1.37-1.1-2.71-1.38-4.15-0.38-2.02-0.48-3.46-0.22-4.39 0.28 0.42 0.22 0.86 0.25 1.28 0.18 2.26 0.52 4.48 1.52 6.55 0.25 0.53 0.5 1.15 1.4 0.62zm169.13-103.35c-0.55-0.43-0.55-0.84-0.63-1.25-0.57-2.99-1.48-5.85-3.16-8.44-0.47-0.73-0.91-0.88-1.73-0.55-2.3 0.94-4.33 4.17-4.34 7.09-0.01 1.94 0.62 3.54 2.42 4.55 0.75 0.42 1.47 0.93 2.15 1.46 1.2 0.94 2.38 1.99 2.67 3.52 0.28 1.46 0.76 2.49 2.33 2.74 0.05 0.01 0.08 0.13 0.11 0.19 0.03 0.79-1.22 1-0.92 2.07 0.7-0.39 1.3-0.73 1.91-1.07 0.63-0.36 1.34-0.38 2.03-0.45 0.04-0.18 0.08-0.29 0.09-0.41 0.41-3.1 2.02-4.76 5.12-5.26q0.57-0.1 1.06-0.47c1.55-1.16 2.05-2.97 2.8-4.6 1.22-2.61 1.68-5.39 1.23-8.29-0.36-2.34-1.59-3.29-4.05-2.92 0.43 2.37 0.09 4.67-0.64 6.93 0.23-2.11 0.33-4.23 0.18-6.35-0.14-2.15-1.54-4.55-3.8-5.2-2.26-0.64-4.37-0.37-6.4 0.69-0.98 0.51-1.6 1.36-1.98 2.41-0.17 0.47-0.15 0.74 0.25 1.12 1.77 1.7 2.88 3.82 3.62 6.14 0.9 2.85 0.83 5.83 1.17 8.76 0.12 1.06 0.54 2.06 0.67 3.29-0.64-0.47-0.78-1.02-0.85-1.53q-0.31-2.35-0.49-4.7c-0.25-3.49-0.83-6.88-2.93-9.8-0.47-0.65-0.9-1.37-1.69-1.79-0.23 0.69-0.16 1.16 0.23 1.72 2.15 3.06 3.05 6.55 3.57 10.4zm-238.69-12.19c-1.7-0.15-3.11 0.09-3.71 1.78-0.46 1.31-0.61 2.71-0.52 4.08 0.22 3.22 1.5 6.1 3.1 8.85 0.59 1.01 1.46 1.72 2.77 1.72 1.04 0.01 1.84 0.62 2.6 1.28 1.32 1.15 1.82 2.69 2.02 4.45 1.6-0.34 2.63 0.9 4.08 1.38 0-1.04-1.13-1.3-1.08-2.1 0.34-0.44 0.82-0.39 1.22-0.54 0.38-0.13 0.81-0.26 0.85-0.72 0.27-3.13 2.36-4.92 4.82-6.32 2.65-1.51 3.25-3.86 2.55-6.45-0.64-2.36-1.64-4.53-4.21-5.49-0.74-0.28-1.13-0.15-1.54 0.49-1.51 2.3-2.43 4.83-3.03 7.5-0.16 0.71-0.05 1.54-0.84 2.38 0.53-3.95 1.43-7.44 3.58-10.5 0.41-0.59 0.49-1.06 0.15-1.82-1.74 1.75-2.87 3.69-3.58 5.89-0.92 2.85-0.91 5.82-1.17 8.75-0.15 1.68-0.39 2.58-1.21 3.13 1.01-2.83 0.88-5.73 1.22-8.56 0.42-3.44 1.57-6.61 4-9.14 0.75-0.77 0.76-1.32 0.29-2.11-0.29-0.48-0.57-0.97-1.03-1.29-2.42-1.65-5.03-2.08-7.71-0.86-2.4 1.1-3.18 3.25-3.19 5.74-0.01 1.37-0.09 2.76 0.22 4.13 0.11 0.44 0.06 0.92 0.08 1.39q-0.15 0-0.3 0c-0.51-2.29-0.85-4.59-0.43-7.04zm-13.29 70.15c2.21 1.53 4.05 3.34 6.37 4.48 0.35 0.17 0.67 0.42 0.97 0.67 1.56 1.26 3 2.62 3.18 4.79 0.04 0.46 0.32 0.59 0.69 0.67 3.98 0.83 7.94 0.63 11.9-0.1 0.79-0.15 1.25-0.56 0.93-1.53-0.39-1.14-0.02-2.16 0.8-3.04 1.52-1.63 3.44-2.33 5.6-2.47 0.7-0.05 1.28-0.29 1.88-0.63 2.47-1.4 5.09-1.48 7.63-0.36 1.5 0.65 2.96 1.28 4.59 1.47 1.66 0.2 2.91 1.07 3.91 2.41 0.58 0.79 1.33 1.46 2 2.18 0.27 0.28 0.54 0.43 0.93 0.19 1.69-1.07 3.38-2.13 5.28-3.32-2.95-1.26-5.72-2.03-8.71-1.53-0.98 0.16-1.35-0.1-1.19-1.09 0.24-1.5-0.32-2.8-1.1-4.02-0.24-0.38-0.51-0.64-1-0.75q-5.04-1.07-10.06-2.25c-0.78-0.18-1.2 0.02-1.68 0.64-1.59 2.06-3.55 3.59-6.22 4.01-1.15 0.18-2.13 0.69-3.07 1.42-2.02 1.58-4.31 2.64-6.81 3.2-1.2 0.27-2.41 0.47-3.65 0.32-1.73-0.22-2.46-1.14-2.13-2.85 0.12-0.61 0-0.94-0.53-1.25-0.5-0.3-0.96-0.7-1.39-1.1-3.13-2.88-3.82-6.7-0.49-9.66-0.05-0.13-0.09-0.29-0.16-0.42-1.03-1.73-1.59-3.46-0.14-5.27 0.26-0.32 0.12-0.66-0.33-0.87-1.33 0.94-2.9 0.86-4.55 0.78 2.24 3.64 2.11 4.61-0.92 7.36-1.01 0.92-1.24 2.1-1.19 3.35 0.07 1.69 0.09 3.33-1.34 4.57zm266.29-16.08c-0.39 0.32-0.5 0.63-0.22 0.97 1.32 1.62 0.93 3.26 0 4.85-0.38 0.65-0.27 0.97 0.27 1.47 1.29 1.21 1.8 2.74 1.5 4.52-0.4 2.44-1.97 4.07-3.86 5.46-0.37 0.28-0.8 0.41-0.73 1.06 0.27 2.39-0.44 3.17-2.86 3.13-3.61-0.06-6.79-1.4-9.64-3.52-0.95-0.71-1.91-1.26-3.06-1.44-2.72-0.42-4.7-1.98-6.3-4.08-0.46-0.61-0.9-0.74-1.61-0.57q-4.37 1.07-8.78 2.02c-2.07 0.44-3.23 1.64-3.41 3.79q-0.06 0.65 0.03 1.3c0.1 0.84-0.2 1.21-1.07 1.01-0.97-0.22-1.97-0.2-2.95-0.11-1.99 0.17-3.88 0.7-5.84 1.67 1.13 0.71 2.05 1.3 2.99 1.88 3.05 1.91 3.08 1.91 5.22-1.04 0.96-1.31 2.21-2.13 3.83-2.34 1.42-0.18 2.77-0.54 4.06-1.2 2.85-1.45 5.7-1.38 8.47 0.27q0.67 0.4 1.45 0.43 2.42 0.1 4.48 1.39c1.68 1.05 2.53 2.5 2.09 4.01-0.37 1.25 0.27 1.58 1.23 1.74 3.6 0.59 7.22 0.8 10.85 0.16 0.91-0.16 1.51-0.37 1.54-1.48 0.02-0.88 0.58-1.62 1.14-2.3 0.99-1.21 2.18-2.22 3.57-2.9 2.11-1.03 3.64-2.82 5.73-4.07-1.37-1.16-1.49-2.63-1.38-4.19 0.12-1.75-0.41-3.17-1.88-4.35-2.14-1.71-2.29-3.51-0.81-5.84 0.17-0.25 0.49-0.43 0.43-0.92-1.57 0.14-3.13 0.14-4.48-0.78zm-1.35-36.64c3.81-4.13 9.48-6.03 12.6-10.92-0.8 1.87-2.17 3.26-3.69 4.47-2.04 1.61-4.2 3.08-6.28 4.63q-1.29 0.96-2.31 2.3c0.37 0.22 0.55 0.19 0.72 0.05 1.94-1.61 4.3-2.43 6.55-3.47 3.84-1.78 7.21-4.2 9.74-7.67 0.33-0.44 0.58-0.84 0.4-1.4-1.09-3.35-3.38-5.66-6.28-7.56-0.84 1.67-1.49 3.31-2.96 4.38 0.75-1.33 1.64-2.57 2.22-3.99 0.26-0.63 0.15-0.95-0.51-1.18-0.8 1.89-1.66 3.74-2.65 5.53-0.99 1.79-1.91 3.62-3.57 5.17-0.04-0.61 0.25-0.8 0.43-1.04 2.15-2.9 3.77-6.09 5.05-9.44 0.58-1.54 1.17-3.16-0.11-4.69q-1.08-1.31-2.67-1.88c-2.06-0.74-5.85 0.4-6.14 3.19-0.12 1.19-0.47 2.36-0.71 3.54-0.28-1.52 0.25-2.96 0.39-4.83-1.51 1.65-3.08 1.8-4.81 1.5-0.96-0.16-1.94 0.01-2.84 0.74 1.33 0.7 2.57 1.49 3.01 2.91 0.35 1.11 1.03 1.48 2.05 1.53 1.5 0.07 2.41 0.93 2.89 2.24 0.65 1.77 0.82 3.63 0.5 5.48-0.59 3.45-1.88 6.61-4.17 9.35 1.16 0.09 2.15 0.56 3.15 1.06zm-255.39-19.98c-0.19-1.06-0.4-2.12-0.56-3.19-0.52-3.32-3.82-4.13-6.01-3.63-2.68 0.6-4.07 2.88-3.34 5.51 1.04 3.75 2.96 7.09 5.14 10.29 0.25 0.36 0.65 0.64 0.71 1.48-3.02-3.34-4.55-7.17-6.43-11.06-0.22 0.32-0.5 0.53-0.47 0.7 0.27 1.82 1.56 3.15 2.33 4.74-1.46-1.14-2.13-2.81-2.97-4.43-2.75 1.86-5.02 4.03-6.13 7.21-0.23 0.67-0.19 1.15 0.25 1.74 2.6 3.52 6.02 5.97 9.97 7.76 2.18 0.99 4.46 1.81 6.33 3.38 0.19 0.16 0.41 0.25 0.64-0.12-1.15-1.55-2.71-2.67-4.3-3.75-2.67-1.84-5.35-3.67-7.31-6.32-0.27-0.36-0.71-0.68-0.57-1.5 1.88 2.76 4.15 4.78 6.73 6.49 1.95 1.29 3.91 2.55 5.46 4.33 0.29 0.33 0.56 0.36 0.93 0.12 0.79-0.52 1.71-0.66 2.62-0.87-1.96-2.18-3-4.75-3.79-7.44-0.66-2.28-0.72-4.59-0.04-6.88 0.47-1.58 1.38-2.63 3.15-2.72 0.92-0.05 1.58-0.37 1.89-1.39 0.34-1.13 1.19-1.93 2.2-2.55 0.27-0.17 0.7-0.17 0.77-0.61-1.19-0.8-2.5-0.78-3.78-0.54-0.99 0.18-1.79-0.07-2.58-0.56-0.36-0.22-0.63-0.6-1.16-0.63 0.07 1.49 0.71 2.92 0.32 4.44zm281.32 60.36c-3.07-1.76-6.72-1.11-9.95-2.69 0.13 0.92 0.7 1.01 1.14 1.2 1.36 0.56 2.82 0.73 4.26 0.97 1.6 0.26 3.08 0.78 4.31 1.87-0.61-0.24-1.18-0.56-1.77-0.85-1.67-0.81-3.52-0.86-5.29-1.24-1.74-0.37-3.26-1.82-5.25-1.07-0.29 0.11-0.72-0.01-1.04-0.14-0.71-0.27-1.01 0.05-1.24 0.66-0.25 0.67-0.29 1.39-0.41 2.1-0.49-1.06 0.23-2.01 0.29-3.11-0.78 0.72-0.78 0.72-1.33 3.24 0-0.85-0.14-1.8 0.33-2.49 0.99-1.43-0.12-2.06-0.83-2.94-0.39 0.27-0.72 0.49-1.04 0.72-2.62 1.9-2.72 4.29-0.26 6.38 0.99 0.85 2.09 1.56 3.2 2.24 1.52 0.94 2.54 2.19 2.85 4.02 0.19 1.16-0.37 2.04-0.89 2.91 0.93 0.92 0.93 0.92 0.75 2.16 0.97 0.54 2.04 0.79 3.13 0.95 2.87 0.41 5.52-0.02 7.71-2.13 0.72-0.7 0.84-1.33 0.13-2.13-0.89-1.01-1.84-1.95-2.92-2.76-1.17-0.88-2.38-1.71-3.57-2.56 2.84 1.41 5.39 3.2 7.29 5.79 0.45 0.62 0.88 1.33 1.97 0.97-0.95-2.39-2.94-3.73-4.79-5.19 2.12 1.02 3.83 2.49 4.95 4.57 0.31 0.58 0.63 0.71 1.22 0.44 2.15-0.99 3.03-2.8 3.22-5.02 0.17-1.98-0.06-3.84-2.06-4.91-0.47-0.25-0.64-0.54-0.44-1.04 0.33-0.82-0.02-1.45-0.54-2.05-0.68-0.79-1.59-1.3-2.42-1.9-2.62-1.9-5.49-2.25-8.55-1.19-0.69 0.24-1.13 0.65-1.34 1.49 2.98 1.3 6.51 0.66 9.18 2.73zm-297.41-2.73c-3.29 1.65-6.95 0.97-10.16 2.95 0.44-0.74 0.96-0.85 1.42-1.03 1.67-0.67 3.43-0.92 5.19-1.17 0.95-0.13 1.98-0.16 2.77-0.96-0.27-0.53-0.54-1.01-1.11-1.19-2.23-0.68-4.44-1.09-6.7-0.05-1.5 0.69-2.81 1.62-4.08 2.62-0.78 0.63-1.41 1.43-0.95 2.58 0.16 0.38 0.01 0.62-0.34 0.88-3.26 2.35-2.84 7.97 0.7 9.83 0.75 0.39 1.2 0.43 1.68-0.47 1.07-2 2.77-3.4 4.84-4.36-1.9 1.43-3.86 2.8-4.83 5.26 1.09 0.16 1.56-0.41 1.99-1.04 1.25-1.88 3.03-3.21 4.82-4.51 0.74-0.53 1.49-1.16 2.47-1.3-0.12 0.18-0.28 0.28-0.44 0.38-2.24 1.36-4.31 2.92-6.02 4.93-0.54 0.64-0.74 1.2-0.07 1.95 2.41 2.69 8.03 3.35 11.1 1.21-0.53-0.87 0.01-1.45 0.72-2-1.43-1.7-1.12-3.41-0.11-5.09 0.5-0.83 1.3-1.35 2.1-1.88 1.42-0.93 2.93-1.76 4.01-3.1 1.22-1.52 1.14-3.18-0.15-4.61-0.59-0.65-1.33-1.09-2.07-1.61-0.76 0.95-1.73 1.65-0.79 3.06 0.41 0.61 0.32 1.57 0.45 2.37-0.43-1.07-0.35-2.32-1.51-3.42 0.13 1.33 0.87 2.27 0.31 3.3-0.07-0.75-0.13-1.49-0.43-2.18-0.16-0.35-0.27-0.76-0.83-0.66-1.98 0.37-3.99 0.11-5.99 1.02-2.42 1.09-5.38 0.73-7.71 2.37 1.25-1.06 2.7-1.62 4.28-1.87 1.44-0.23 2.9-0.4 4.27-0.97 0.44-0.18 1-0.27 1.17-1.24zm71.83 50.45c0.06 0.41-0.1 0.53-0.24 0.67-0.82 0.87-1.81 1.52-2.83 2.12-0.39 0.24-0.6 0.52-0.38 0.97 0.23 0.49 0.62 0.24 0.92 0.11 0.39-0.17 0.74-0.44 1.12-0.65 1.42-0.78 2.32-2.19 3.67-3.06-1.37 1.97-3.19 3.43-5.35 4.47 0.31 0.82 0.79 0.89 1.44 0.59 2-0.94 3.72-2.21 5.07-3.98 1.08-1.43 2.09-2.91 3.06-4.4-1.83 3.88-4.22 7.27-8.37 9.02 0.12 0.19 0.15 0.27 0.21 0.32 2.1 1.57 7.43 1.13 9.25-0.74 0.28-0.29 0.24-0.56 0.2-0.87-0.22-1.52 0.1-2.9 1.09-4.07-1.96-2.78-2.2-4.09-1.31-7.22 0.9-3.13 2.56-5.75 5.26-7.84-2.37-2.82-1.9-5.77-0.13-8.75-0.77-0.06-0.77 0.47-1.13 0.59-1.89 0.63-2.83 2.19-3.56 3.88-0.49 1.12-1.14 1.89-2.47 1.72-0.49 1.37-0.83 2.71-1.49 3.94-1.07 2-2.67 3.18-4.94 3.41q-0.71 0.08-1.41 0.17c-2.22 0.25-4.06 1.25-5.57 2.86-2.06 2.2-2.38 3.78-1.38 5.86 1.05 2.16 3.06 2.84 5.14 3.42 0.39 0.11 0.76-0.12 1.09-0.36 0.98-0.71 1.97-1.41 3.04-2.18zm143.66 0.07c0.59 0.03 0.79 0.41 1.07 0.64 2.72 2.25 3.73 2.3 6.69 0.34q0.16-0.09 0.31-0.19c1.31-0.97 2.26-3.46 1.73-4.74-0.66-1.59-1.65-2.94-3.05-3.99q-2.27-1.68-5.06-1.81c-3.03-0.15-4.99-1.75-6.08-4.5-0.37-0.95-0.68-1.93-1.04-2.98-1.03 0.16-1.79-0.21-2.18-1.19-0.89-2.28-2.37-4.01-4.94-5.01 0.7 1.52 1.48 2.9 1.5 4.48 0.03 1.65-0.68 3.04-1.62 4.33 1.31 1.08 2.44 2.13 3.25 3.46 2.31 3.8 3.78 8.44 0.69 11.59 1.01 1.42 1.26 2.26 1.08 3.99-0.06 0.55 0.07 0.86 0.52 1.17 2.32 1.57 4.86 1.77 7.5 1.25 0.6-0.12 1.2-0.39 1.64-1.03-1.98-0.92-3.78-2.07-5.12-3.76-1.28-1.62-2.61-3.25-3.24-5.29 0.77 1.04 1.47 2.13 2.17 3.21 1.46 2.28 3.4 4.01 5.88 5.15 0.67 0.31 1.2 0.33 1.47-0.5-3.74-2.41-4.87-3.4-5.18-4.67q0.84 0.74 1.58 1.58c0.86 0.95 1.89 1.66 3.02 2.24 0.32 0.16 0.74 0.45 1-0.12 0.21-0.47-0.06-0.74-0.44-0.95-0.18-0.09-0.37-0.17-0.52-0.29-0.89-0.71-1.99-1.2-2.63-2.41zm86.2-35.89c0.89 0.48 1.41 0.13 1.86-0.45 0.38-0.5 0.72-1.01 1.44-1.12 2.54-0.4 3.78-1.96 4.14-4.48 0.26-1.81 0.23-3.74 1.47-5.3q0.69-0.84 1.44-1.7c-1.68-1.74-2.75-3.65-2.29-6.12 0.14-0.7-0.44-0.86-0.92-1.02-1.7-0.58-3.48-0.67-5.25-0.81-1.48-0.11-2.94 0.28-4.42 0.14 1.74-0.49 3.52-0.39 5.28-0.35 1.81 0.04 3.56 0.46 5.35 0.93 0.18-1.08-0.59-1.13-1.13-1.31-1.94-0.66-3.97-0.64-5.99-0.75 2.4-0.36 4.73 0.01 7.08 0.55-1.02-1.47-2.78-0.95-4.22-1.59 1.35-0.2 2.53 0.44 3.95 0.33-1.18-1.89-2.47-3.41-4.39-4.21-1.22-0.51-2.45-0.24-3.4 0.7-0.57 0.56-0.93 0.69-1.54 0.07-0.83-0.85-1.94-1.06-3.08-0.86-3.09 0.55-5.57 2.12-7.49 4.6-0.43 0.55-0.45 1.01-0.06 1.6 0.73 1.14 0.78 2.38 0.28 3.64-0.1 0.24-0.3 0.49-0.07 0.75 0.09 0.02 0.17 0.06 0.24 0.05q0.35-0.07 0.69-0.17 3.22-0.93 6.22 0.59c1.49 0.76 2.81 1.76 4.03 2.89 0.6 0.56 0.98 1.28 0.81 2.13-0.1 0.53 0.09 0.79 0.5 1.05 1.25 0.77 1.77 1.99 1.93 3.38 0.29 2.63-0.41 4.93-2.46 6.84zm-315.95 0.01c-0.29-0.31-0.54-0.56-0.77-0.82-1.85-2.08-2.43-5.94-0.97-8.09 0.8-1.18 1.95-2.09 1.99-3.7 0-0.35 0.45-0.72 0.77-1.01q0.92-0.85 1.93-1.57c2.55-1.78 5.28-2.67 8.38-1.61 0.22 0.08 0.46 0.17 0.68-0.01-0.45-3.17-0.51-3.2 0.16-4.3 0.43-0.71 0.31-1.22-0.16-1.8-1.88-2.34-4.26-3.86-7.22-4.42-1.22-0.24-2.39-0.04-3.3 0.88-0.57 0.59-0.93 0.44-1.44-0.09-0.79-0.84-1.87-1.16-2.94-0.86-2.27 0.62-3.6 2.35-4.9 4.36 1.43 0.06 2.6-0.54 4.1-0.32-4.06 0.82-4.06 0.82-4.34 1.81 2.35-0.89 4.68-1.11 7.05-0.79-0.5 0.12-1 0.13-1.5 0.12q-2.45-0.06-4.78 0.71c-0.5 0.17-1.07 0.35-0.78 1.24 3.51-1.08 7.02-1.23 10.57-0.6-0.74 0.05-1.48-0.01-2.22-0.07-2.43-0.2-4.81 0.04-7.17 0.64-0.87 0.22-1.35 0.62-1.16 1.66 0.31 1.71-0.38 3.17-1.38 4.52-0.3 0.39-0.77 0.67-0.89 1.28q0.85 0.7 1.49 1.64c1.23 1.75 1.08 3.85 1.49 5.8 0.41 1.95 1.47 3.22 3.39 3.66 0.9 0.21 1.62 0.53 2.13 1.33 0.41 0.63 0.99 0.86 1.79 0.41zm310.99-48.47c-0.89-1.47-1.72-2.66-2.72-3.71-0.88-0.92-1.19-1.77-0.67-3.06 0.8-1.99-0.8-4.69-2.94-5.14-0.79 2.44-2.05 4.5-4.69 5.27 0.67 3.49-0.85 5.74-4.35 6.54-2.05 0.48-4.14 0.53-6.23 0.51-0.77-0.01-1.91-0.1-2.12 0.65-0.42 1.54-1.14 2.84-2.4 4.1 3.63 0.01 6.8-0.92 9.99-1.79 5.01-1.37 9.99-2.95 15.31-2.02 0.44 0.08 0.9 0.06 1.37 0.54-1.88-0.22-3.6-0.43-5.33-0.39-3.63 0.1-7.04 1.18-10.49 2.11-3.07 0.84-6.12 2-9.31 1.92-1.96-0.04-3.59 0.77-5.42 0.97 0.67 2.37 3.01 4.2 5.56 4.33 2.01 0.09 3.78 0 4.63-2.5 0.71-2.06 2.92-2.7 4.96-1.9 1.55 0.61 2.43 1.87 2.58 3.44 0.17 1.77 1.34 2.2 2.81 2.64 1.44-5.53 5.08-7.8 10.65-7.12 0.3-1.41-0.04-2.69-0.43-3.98-0.2-0.65-0.65-0.92-1.29-1.02-2.08-0.32-4.15-0.39-6.24-0.04-0.97 0.17-1.96 0.27-2.94 0.41q-0.02-0.15-0.04-0.29c1.5-0.42 3.04-0.72 4.62-0.77 1.64-0.06 3.28-0.07 5.13 0.3zm-279.87 5.14c-1.2-1.13-2.02-2.19-2.24-3.56-0.11-0.69-0.43-0.87-1.06-1.01-2.03-0.42-4.08-0.09-6.13-0.38-4.4-0.61-6.37-2.83-5.72-6.83-1.16-0.4-2.19-1.01-3-1.98-0.81-0.98-1.24-2.16-1.7-3.3-2.28 0.57-3.7 3.15-2.86 5.29 0.44 1.13 0.21 1.94-0.59 2.77-1.05 1.1-1.93 2.35-2.91 3.94 1.88-0.49 3.49-0.43 5.1-0.38 1.61 0.04 3.19 0.32 4.81 0.83-0.26 0.28-0.39 0.26-0.56 0.22-2.35-0.56-4.75-0.76-7.15-0.56-0.95 0.08-2.19-0.18-2.73 0.94-0.64 1.32-0.89 2.75-0.6 4.27 5.61-0.69 9.21 1.62 10.66 7.1 1.49-0.44 2.54-0.92 2.82-2.66 0.39-2.43 1.78-3.53 3.86-3.66 2-0.13 3.33 0.71 4.1 3.03 0.42 1.23 1.23 1.35 2.21 1.55 3.21 0.65 7.28-1.62 7.5-4.21-1.86-0.45-3.65-1-5.65-1.01-2.83 0-5.54-0.98-8.27-1.72-3.72-1-7.38-2.23-11.29-2.32-1.73-0.04-3.44 0.18-5.19 0.37 0.11-0.36 0.4-0.39 0.59-0.42 2.19-0.36 4.41-0.52 6.61-0.25 3.52 0.43 6.89 1.52 10.31 2.43 2.87 0.78 5.75 1.58 9.08 1.51zm187.12 17.6c1.97-0.34 3.77-0.99 5.31-2.24 0.88-0.71 1.45-1.67 1.73-2.77 0.2-0.77 0.16-1.65-0.59-2.02-1.29-0.64-0.86-1.26-0.27-2.11 2.39-3.44 2.74-7.07 0.89-10.87-0.17-0.36-0.35-0.75-0.74-0.9-1.33-0.51-2.37-1.57-3.77-1.96-0.61-0.18-0.98-0.56-0.52-1.25 0.39-0.57 0.11-1.03-0.28-1.48-0.97-1.11-2.26-1.54-3.67-1.72-1.42-0.19-2.84-0.08-4.26 0.06-0.62 0.07-1.05 0-1.14-0.79-0.08-0.79-0.77-1.07-1.46-1.18q-1.41-0.23-2.83 0.05c-1.48 0.3-1.71 0.67-1.59 2.19 0.26 3.32 1.88 6.21 2.69 9.43 2.63-0.79 0.16-1.63 0.07-2.27 0.32-0.43 0.66-0.38 0.96-0.44q1.94-0.37 3.67-1.31c0.26-0.15 0.64-0.24 0.62-0.64-0.02-0.43-0.43-0.49-0.75-0.64-0.61-0.29-1.41 0.05-2.07-0.63 2.07-1.26 4.7-0.93 6.51-2.65 0.52 0.77 0.07 1.18-0.57 1.42-1.05 0.4-2.13 0.72-3.24 1.09 1.32 1.48 1.29 1.67-0.47 3.07 2.46 1.67 3.32 4.19 3.36 6.94 0.05 2.94 0.68 5.79 0.98 8.68 0.08 0.76 0.4 1.08 1.06 1.35 0.58 0.23 1.35 0.44 1.33 1.35-0.8 0.25-1.1-0.71-1.85-0.53 0.06 0.98 0.4 1.87 0.89 2.77zm-128.06 39.5q-0.02-0.14-0.03-0.29c-1.22 0-2.44 0.05-3.66-0.01q-1.89-0.09-3.77-0.37c-1.14-0.16-2.31-0.3-3.36-0.84 1.38 0.1 2.73 0.37 4.09 0.55 2.88 0.4 5.81 0.65 8.55-0.45 2.19-0.89 4.34-1.05 6.61-0.67 0.43 0.08 0.88 0.14 1.28-0.05 1.44-0.66 2.89-1.02 4.39-0.31 0.35-0.63 0.63-1.1 0.87-1.59 1.26-2.58 0.76-5.9-1.27-7.65-1.77-1.52-3.99-1.81-6.22-1.93-0.18-0.01-0.44 0.09-0.52 0.22-0.63 0.99-1.64 1.69-2.22 2.81 2.22 1.1 4.21 2.4 6.05 4.45-0.83-0.08-1.03-0.52-1.34-0.78-1.35-1.15-2.71-2.28-4.37-3-0.54-0.23-1.09-0.46-1.52 0.23 0.41 0.55 1.19 0.32 1.52 0.88-0.22 0.23-0.47 0.12-0.66 0.03-1.04-0.54-1.9-0.23-2.86 0.34-2.23 1.33-4.64 2.27-7.26 2.37-2.49 0.1-4.7 1.02-6.82 2.17-1.54 0.83-2.38 2.14-2.07 4.02 0.29 1.82 1.37 2.87 3.12 3.29 2.59 0.61 5.17 0.46 7.76-0.03 1.49-0.27 2.3-1.19 2.89-2.62-2.22 0.18-4.32 0.5-6.43 0.03 2.43-0.21 4.89-0.15 7.25-0.8zm130.87-10.56c-2.08-3.21-2.94-3.53-6.42-2.44-0.53 0.16-1.05 0.36-1.54 0.62-1.37 0.74-2.34 1.83-2.69 3.41-0.52 2.33-0.08 4.45 1.31 6.5 1.48-0.64 2.9-0.34 4.3 0.32 0.52 0.25 1.08 0.09 1.63 0.02 1.86-0.26 3.73-0.38 5.49 0.41 1.51 0.69 3.08 0.94 4.71 1.02 2.55 0.12 5.05-0.24 7.53-0.74 0.41-0.09 0.84-0.28 1.6 0.01-3.89 0.99-7.5 1.37-11.19 1.2 2.36 0.92 4.83 0.77 7.25 1.05-2.11 0.46-4.22 0.11-6.47-0.04 0.53 1 0.91 1.96 1.86 2.26 3.24 1.01 6.56 1.24 9.78 0.02 2.56-0.97 3.05-4.66 0.9-6.36-1.96-1.54-4.28-2.47-6.74-2.66-2.63-0.2-5.09-0.8-7.36-2.05-1.36-0.76-2.62-1.39-4.17-0.68-0.01 0-0.07-0.1-0.11-0.16 0.35-0.51 1.15-0.27 1.48-0.85-0.37-0.6-0.85-0.5-1.34-0.27-1.01 0.45-1.98 0.97-2.84 1.69q-1.31 1.09-2.64 2.15-0.09-0.13-0.18-0.25c1.64-1.74 3.57-3.12 5.85-4.18zm-44.31-14.44q-0.04-0.16-0.08-0.32c-0.99 0-2.01 0.2-2.94-0.03-3.17-0.78-6.26-1.81-9.31-3.02-7.08-2.8-12.7-7.07-15.7-14.35-0.9-2.18-2.28-4.15-3.88-5.93-1-1.11-2.16-2-3.75-2.55 0.43 2.8 0.48 5.47 1.93 7.89 1.21 2.02 2.17 4.2 3.28 6.28 1.04 1.95 1.73 4.07 3 5.9 2.71 3.91 6.17 6.17 11.16 5.17 0.9-0.18 1.5 0.28 1.96 1.01 1.44 2.25 3.73 3.18 6.15 3.89 0.21 0.06 0.48 0.05 0.69-0.03 2.68-0.97 5.14-2.34 7.49-3.91zm139.29-20.46c0.04-0.63 0.42-0.84 0.63-1.14 0.73-1.04 1.42-2.1 1.8-3.32 0.19-0.58 0.21-1.09-0.59-1.15-0.46 0.63-0.49 1.48-1.18 1.89 0.07-0.32 0.26-0.58 0.35-0.88 0.13-0.41 0.64-0.95 0.09-1.26-0.68-0.39-0.79 0.37-1.04 0.77-0.5 0.8-0.82 1.74-1.74 2.2 0.14-0.37 0.36-0.69 0.55-1.01 1.42-2.38 1.32-3.45-0.54-5.55-1.35-1.54-3.57-1.8-5.21-0.59-2.1 1.54-3.39 3.61-3.28 6.24 0.14 3.37-1.55 5.32-4.47 6.49-0.74 0.3-1.5 0.46-1.39 1.56 0.05 0.49-0.47 0.81-0.89 1.02-1.83 0.92-3.13 2.29-3.84 4.55 2.49-1.68 4.93-2.34 7.52-0.56 1.49-2.35 3.47-3.92 5.91-4.93 2.22-0.91 4.42-1.31 6.5 0.46 0.9-0.86 1.94-1.35 3.13-1.26 0.74 0.05 1.08-0.27 1.36-0.86 0.94-1.95 0.93-3.97 0.36-6.01-0.15-0.54-0.39-1.1-1.07-1.35-0.7 1.72-1.52 3.3-2.96 4.69zm-315.32 4.72c4.02-2.3 7.4-1.11 12.56 4.46 2.49-1.71 4.93-1.03 7.4 0.63-0.71-2.25-2-3.62-3.83-4.54-0.47-0.24-0.98-0.59-0.92-1.14 0.09-0.93-0.5-1.1-1.14-1.35-3.08-1.17-4.9-3.17-4.69-6.7 0.11-1.94-0.73-3.62-2.03-5.04-1.98-2.13-3.53-2.41-5.74-1.08-2 1.21-2.66 3.75-1.49 5.72q0.42 0.71 0.82 1.43c-0.94-0.6-1.4-1.51-1.87-2.41-0.19-0.35-0.35-0.82-0.85-0.62-0.62 0.25-0.23 0.73-0.1 1.1 0.14 0.38 0.34 0.75 0.63 1.37-0.9-0.69-0.89-1.6-1.4-2.17-0.36 0.01-0.66 0.18-0.64 0.46 0.15 1.98 1.53 3.36 2.47 4.97-1.46-1.18-2.18-2.87-2.97-4.48-0.17 0.07-0.26 0.08-0.31 0.13-1.42 1.63-1.44 6.08-0.05 7.73 0.2 0.25 0.4 0.35 0.7 0.33 1.34-0.11 2.48 0.35 3.45 1.2zm48.3 22.67c-1.98-1.29-2.97-2.98-4.13-4.52-0.35-0.46-0.79-0.71-1.31-0.96-2.43-1.16-4.95-0.81-7.45-0.43-2.07 0.32-4.14 0.68-5.97 1.81-1.38 0.84-2.01 2.08-2.02 3.66-0.02 2.77 1.75 4.42 3.83 5.73 0.93 0.58 1.34 0.92 0.79 2.04-0.54 1.12-0.04 1.79 1.21 1.97q0.58 0.08 1.18 0.02c3.42-0.26 6.38-1.68 9.15-3.61 0.77-0.54 1.18-1.29 1.51-2.38-1.26 0.42-2.32 0.8-3.4 1.13-1.06 0.31-2.13 0.62-3.21 0.84-1.05 0.22-2.13 0.33-3.19 0.49 9.87-2.58 11.43-3.19 12.51-5.16-3.04 0.8-6.03 1.51-9.14 1.49 3.11-0.6 6.23-1.1 9.64-2.12zm221.13 3.31c0.49 1.29 0.71 1.76 1.14 2.09 3 2.25 6.3 3.81 10.11 3.96 1.85 0.07 2.38-0.74 1.66-2.46-0.3-0.71-0.18-1.03 0.53-1.36 1.28-0.58 2.27-1.56 3.12-2.67 2.18-2.88 1.33-6.21-2.03-7.55-3.09-1.23-6.34-1.68-9.65-1.53-1.29 0.05-2.68 0.4-3.59 1.34-1.47 1.51-2.38 3.52-4.46 4.86 3.37 1.06 6.52 1.47 9.61 2.16-3.12-0.01-6.13-0.76-9.17-1.35 3.53 3.37 8.23 3.67 12.6 4.87-3.37-0.12-6.52-1.18-9.87-2.36zm-201.37 19.02c-0.85 1.62-1.63 3.18-2.49 4.69-1.47 2.58-2.4 3.73-3.26 4.12 1.44-1.97 2.74-3.88 3.8-5.94 1.05-2.08 2.31-4.09 2.04-6.85-1.79 2.89-3.38 5.66-5.73 7.86 1.89-2.67 3.75-5.35 5.47-8.46-2.2 0.46-4.1 0.01-6-0.27-0.65-0.1-1.21 0.06-1.83 0.28-2.5 0.89-3.96 2.92-5.46 4.91-1.07 1.41-2.07 2.89-2.68 4.58-1.13 3.1 0.5 5.88 3.75 6.43 1.55 0.27 3.08 0.24 4.56-0.33 0.57-0.22 0.9-0.15 1.08 0.46 0.61 2.16 1.89 2.04 3.3 0.42 1.99-2.3 3.07-5.03 3.77-7.95 0.31-1.31 0.36-2.57-0.32-3.95zm178.62-4.53c1.68 3.1 3.61 5.73 5.42 8.43-2.32-2.23-3.93-5-5.73-7.64 0.23 4.95 3.29 8.58 5.65 12.56-2.43-2.53-3.96-5.64-5.58-9.04-0.24 1.16-0.68 1.92-0.52 2.83 0.59 3.44 1.74 6.63 4.04 9.34 1.43 1.68 2.4 1.59 3.24-0.42 0.26-0.63 0.54-0.73 1.17-0.49 1.31 0.52 2.7 0.56 4.09 0.38 3.79-0.5 5.52-3.51 3.95-6.99-1.33-2.94-3.23-5.55-5.64-7.67-1.26-1.11-2.78-1.97-4.65-1.56-1.7 0.38-3.43 0.58-5.44 0.27zm49.01-43.52c0.96-0.58 1.69-1.09 1.86-2.08 0.44-2.5 0.31-4.98-0.56-7.37-0.6-1.67-2.01-2.42-3.77-2.15-1.39 0.21-2.07 1.21-2.57 2.37-0.82 1.95-1.19 4.02-1.57 6.08-0.18 0.97-0.48 1.69-1.59 1.92-1.14 0.24-1.55 0.96-1.11 2.11q0.74 2 1.44 4.02c0.08 0.22 0.29 0.44 0.02 0.79-0.91-1.8-1.5-3.65-2.35-5.37 0.08 4.02 2.16 7.03 4.97 9.69-2.94-2.07-4.54-5.03-5.51-8.4-0.54 0.3-0.56 0.77-0.67 1.17-0.34 1.28-0.33 2.58-0.33 3.89 0 0.88 0.26 1.59 0.92 2.21 0.96 0.89 1.49 2.05 1.67 3.33 0.27 1.83 0.51 2.12 2.36 2.31q2.11 0.22 4-0.82c0.83-0.45 1.27-0.94 0.78-1.94-0.32-0.64-0.05-1.33 0.14-1.96 0.23-0.72 0.21-1.38 0.03-2.09-0.33-1.39-0.6-2.84-0.12-4.22 0.99-2.91 0.64-5.78-0.03-8.66-0.23-1-0.52-1.99-0.78-2.99 1.23 2.82 1.73 5.79 1.99 8.84 0.52-1.93 0.26-3.88 0.34-5.82 0.53 1.62 0.33 3.28 0.44 5.14zm-274.05-8.16q-0.29 1.01-0.56 2.01c-0.85 3.25-1.38 6.5-0.22 9.8 0.28 0.79 0.25 1.66 0.09 2.48-0.29 1.59-0.62 3.17-0.01 4.77 0.17 0.47-0.08 0.93-0.21 1.38-0.11 0.35-0.2 0.62 0.16 0.94 1.43 1.27 4.6 1.76 6.29 0.92 0.48-0.24 0.86-0.5 0.82-1.16-0.1-1.69 0.62-3.07 1.79-4.23 0.51-0.51 0.77-1.06 0.78-1.78 0.02-1.27 0.07-2.53-0.23-3.78-0.13-0.54-0.13-1.15-0.75-1.62-0.97 3.44-2.58 6.37-5.48 8.42 1.23-1.39 2.68-2.64 3.5-4.36 0.81-1.68 1.84-3.33 1.37-5.36-0.78 1.79-1.38 3.65-2.33 5.49-0.21-0.58 0.1-0.9 0.22-1.25q0.62-1.85 1.3-3.69c0.43-1.11 0-1.8-1.07-2.03-1.13-0.24-1.47-0.97-1.65-2-0.39-2.14-0.77-4.29-1.68-6.29-0.62-1.35-1.6-2.23-3.22-2.14-1.56 0.09-2.58 0.83-3.11 2.47-0.72 2.22-0.85 4.49-0.51 6.8 0.16 1.13 0.83 1.78 1.95 2.32 0.06-1.8-0.12-3.49 0.39-5.12 0.16 1.95-0.24 3.93 0.41 5.86 0.13-3.08 0.76-6.02 1.96-8.85zm158.23 9.98c1.17-0.43 1.66-1.54 1.29-2.97-0.16-0.64-0.21-1.24-0.06-1.87 0.4-1.76 0.87-3.51 1.2-5.29 0.34-1.85 0.16-3.71-0.48-5.47-0.56-1.55-2.17-2.46-3.29-1.92-1.05 0.5-1.39-0.01-1.53-0.87-0.15-0.9-0.42-1.76-0.75-2.6-0.87-2.23-2.66-3.42-4.89-3.55-2.42-0.13-4.39 1.08-5.85 3.04-0.1 0.14-0.16 0.37-0.14 0.55 0.1 1.55-0.22 3.04-0.67 4.58 1.4 0.47 2.7 1.06 4.02 1.78 0.47-1.79 0.99-3.36 1.72-5.21 0.25 1.37-0.39 2.19-0.59 3.11-0.19 0.87-0.77 1.7-0.26 2.65 0.75-2.21 1.33-4.46 2.77-6.34-0.73 1.85-1.42 3.71-1.94 5.63-0.22 0.82-0.07 1.37 0.64 1.92 2.08 1.6 3.84 3.53 5.43 5.6 1.66 2.16 2.65 4.64 3.38 7.23zm-74.05 35.88c0.48-0.43 0.79-0.72 1.12-0.98 2.56-1.98 4.72-1.9 7.02 0.52 1.31 1.38 2.8 1.83 4.59 1.66 0.89-0.08 1.78-0.2 2.8-0.32-0.95-1.15-1.82-2.2-2.69-3.25-1.17-1.4-2.26-2.96-3.96-3.68-1.36-0.58-1.45-1.33-1.23-2.58 0.24-1.35 0.35-2.77-0.22-4.09-1.16-2.66-3.19-4.75-4.78-7.38-0.42 1.53-0.73 2.84-1.13 4.12-1.55 4.93-4.67 7-9.74 6.49-0.18 0.33-0.49 0.63-0.26 1.06 6.11 0.58 8.81 3.39 8.48 8.43zm-71.01-28.57c-0.1 1.13 0.21 1.89 0.71 2.47 0.74 0.84 0.72 1.46 0 2.34-0.93 1.13-0.42 2.37 0.1 3.57 0.48 1.12 1.34 1.27 2.41 1.24 1.46-0.05 2.97-0.16 4.31 0.54 1.94 1 3.99 0.43 6.22 0.77-1.78-3.5-3.76-6.51-6.31-9.14 2.61 2.04 4.31 4.85 6.3 7.48 0.27-1.78 0.53-3.48 1.12-5.1 0.06-0.18-0.08-0.47-0.19-0.67-1.03-1.78-2.31-3.47-4.33-4-1.57-0.42-2.78-1.21-4-2.13q-0.38-0.29-0.82-0.48c-1.33-0.52-2.65-1.06-4.12-0.55-1.11 0.38-1.41 1.28-1.6 2.29-0.2 1.02 0.64 1.11 1.22 1.45 2.14 1.26 4.09 2.76 5.9 4.45-2.28-1.42-4.32-3.21-6.92-4.53zm238 4.53c1.84-1.71 3.81-3.26 6-4.49 1.23-0.69 1.38-0.99 0.9-2.32-0.43-1.21-1.72-1.81-3.24-1.54q-2.45 0.44-4.31 2.11c-0.41 0.37-0.82 0.79-1.4 0.84-2.29 0.23-3.76 1.67-5.07 3.36-0.66 0.86-1.03 1.67-0.5 2.81 0.42 0.92 0.54 1.98 0.56 3.01 0.01 0.31-0.13 0.73 0.44 0.96 1.8-2.67 3.51-5.45 6.11-7.48-2.56 2.65-4.58 5.64-6.27 9.11 1.76-0.09 3.41 0.16 4.8-0.32 2.1-0.73 4.19-1.06 6.38-0.98 0.45 0.01 0.84-0.06 1.18-0.42 1.26-1.3 1.46-3.31 0.36-4.75-0.43-0.57-0.47-0.99-0.01-1.56 0.61-0.76 1.12-1.59 0.95-2.84-2.56 1.28-4.59 3.08-6.88 4.5zm-226.24 27.65c0.74 0.75 1.46 1.13 2.24 1.18 1.15 0.08 1.61 0.5 1.72 1.71 0.14 1.45 1.41 1.96 2.63 2.43 1.07 0.42 1.77-0.01 2.48-0.78 0.91-0.98 1.79-2.13 3.09-2.54 2.25-0.71 3.48-2.6 5.32-4.04-3.72-1.24-7.37-1.93-11.13-2.01 3.4-0.44 6.67 0.37 10.09 1-0.12-0.28-0.14-0.45-0.23-0.55-1.04-1.15-1.95-2.38-2.56-3.82-0.07-0.16-0.24-0.34-0.4-0.39-2.38-0.75-4.76-0.93-6.97 0.45-0.67 0.42-1.29 0.72-2.06 0.75-1.66 0.06-3.17 0.6-4.54 1.53-1.64 1.12-1.92 2.84-0.69 4.27 0.31 0.35 0.58 0.55 1.11 0.35 2.32-0.89 4.79-0.99 7.2-1.39 0.34-0.05 0.72-0.13 1.18 0.24-2.89 0.47-5.65 0.66-8.48 1.61zm213.11-1.76q3.86 0.1 7.59 1.06c0.56 0.15 1.13 0.7 1.68-0.07 0.56-0.8 1.09-1.6 0.67-2.62-0.29-0.7-0.72-1.29-1.38-1.73q-2.08-1.39-4.56-1.5c-0.56-0.03-1.11-0.07-1.58-0.43-2.15-1.69-4.56-1.47-7-0.91-0.26 0.06-0.59 0.11-0.71 0.4-0.65 1.62-1.76 2.95-3.1 4.57 3.65-0.68 6.93-1.52 10.3-1.05-1.85 0.13-3.7 0.2-5.53 0.56-1.83 0.37-3.65 0.78-5.66 1.47 1.56 0.98 2.31 2.59 3.76 3.19 2.05 0.85 3.66 2.16 5.13 3.73 0.27 0.28 0.54 0.55 0.99 0.59 1.7 0.15 3.63-1.31 3.8-3.02 0.08-0.86 0.44-1.14 1.25-1.22 0.93-0.09 1.82-0.39 2.59-1.27-2.75-0.97-5.55-1.1-8.24-1.75zm68.68-83.11c-0.1 0.02-0.2 0.01-0.25 0.05-3.07 3-5.79 6.25-7.31 10.35-2.52 6.76-3.17 13.92-4.58 20.93 2.51-3.64 4-7.72 5.39-11.86-0.76 3.67-2.27 7.06-3.76 10.48 4.92-5.24 8.26-11.27 9.39-18.43 0.6-3.82 0.66-7.68 1.12-11.52zm-329.98 31.29c-0.68-3.7-1.35-7.41-2.06-11.11-0.79-4.09-1.68-8.15-3.53-11.95-1.59-3.25-4.02-5.79-6.63-8.46 0.66 5.62 0.54 11.1 2.17 16.35 1.68 5.41 6.23 12.52 8.48 13.77-0.55-1.18-1.11-2.3-1.6-3.45q-0.74-1.73-1.37-3.51c-0.4-1.12-0.88-2.23-0.85-3.45 1.33 4.16 2.84 8.22 5.39 11.81zm172.18 19.32c-3.65 1.38-6.83 3.26-9.74 5.84 3.81 1.93 7.59 3.52 11.64 4.45 1.01 0.24 1.61-0.06 2.25-0.76q2.88-3.11 4.83-6.86c1.26-2.42 2.05-5.01 2.6-7.83-1.32 0.62-2.43 1.24-3.61 1.68-1.57 0.6-2.34 1.78-2.75 3.3-0.31 1.14-0.36 2.33-0.47 3.5-0.12 1.37-0.52 2.64-1.29 3.79 0.12-1.55 0.91-2.97 0.82-4.55-0.08-1.59 0.37-3.08 0.98-4.58-2.06 0.39-2.52 0.89-2.48 3.08 0.04 2.48-0.61 4.74-1.81 6.87-0.2 0.35-0.29 0.82-1.13 0.91 2.36-2.99 2.39-6.33 2.45-9.68-1.26 0.12-1.71 0.82-1.87 2.01-0.16 1.14-0.13 2.39-0.95 3.38 0.02-1.5 0.54-2.94 0.53-4.55zm24.46-36.18c1.63-6.21-5.84-16.38-12.25-16.99 0.95 4.09-0.08 7.9-1.68 11.67 1.22 1.05 2.21 2.28 3.19 3.49 3.93-1.49 7.38-0.35 10.74 1.83zm-30.16 37.86c-1.66-2.36-3.62-4.19-6.39-4.94-0.88-0.24-1.23-0.76-1.19-1.63 0.06-1.47-0.15-2.91-0.5-4.33-0.74-3.01-2.7-5-5.36-6.55-0.41 2.39-0.86 4.59-1.14 6.81-0.2 1.54-0.72 3.15-0.01 4.67 2.11 4.47 5.28 7.89 9.99 9.75 1.14-1.65 2.94-2.55 4.6-3.78zm-139.48-15.52q0.41 2.07 0.81 4.09c0.06 0.32 0.19 0.61 0.53 0.72 2.25 0.68 3.56 2.7 5.47 3.89 1.13 0.71 2.15 0.87 3.33 0.56 0.89-0.24 1.63-0.79 2.42-1.22 0.91-0.5 0.97-1.26 0.88-2.11-0.1-0.88-0.55-1.51-1.46-1.85-0.36 0.51-0.66 1.03-1.04 1.46-0.37 0.42-0.57 1.06-1.57 1.35 3.87-4.79 6.08-9.72 4.45-15.72-0.49 0.29-0.41 0.7-0.34 1.08q0.46 2.88 0.19 5.78c-0.04 0.45-0.08 0.89-0.59 1.17 0.24-2.33 0.3-4.56-0.11-6.88-1.02 0.83-1.81 1.67-2.85 2.17-0.25 0.12-0.45 0.25-0.5 0.59-0.47 3.26-4.77 5.44-7.72 5.07-0.58-0.08-1.14-0.41-1.9-0.15zm254.1 6.73c-1.12-0.62-1.52-1.85-2.4-2.63-1.39 0.9-1.94 2.74-1.02 3.48 1.29 1.05 2.69 1.98 4.48 1.84 1.76-0.13 2.82-1.58 4.13-2.46 0.97-0.65 1.74-1.68 2.94-2.07 0.42-0.13 0.66-0.37 0.75-0.81q0.39-2.03 0.79-4.04c-0.44-0.25-0.81-0.1-1.2-0.01-3.15 0.71-7.6-1.28-8.41-4.84-0.05-0.23-0.03-0.47-0.3-0.59-1.15-0.51-1.98-1.46-3.1-2.28-0.31 2.35-0.32 4.58-0.19 6.82-1.09-2.58-0.19-5.3-0.49-7.93-1.75 5.96 0.46 10.9 4.02 15.52zm-109.35-10.42c-1.3-1.1-2.67-1.95-4.19-2.5-4.98-1.82-9.62-0.57-14.12 1.67-0.75 0.37-0.61 1.56 0.15 1.99 0.54 0.31 1.11 0.61 1.61 0.97 2.45 1.77 3.94 4.14 4.29 7.2 0.74 0.06 1.31-0.17 1.86-0.48 1.96-1.08 3.25-2.73 4.06-4.77 0.25-0.63 0.58-0.89 1.27-1 2.05-0.35 3.61-1.57 5.07-3.08zm0.71 0.59c-1.47 0.87-2.11 2.14-2.08 3.83 0.03 1.86 0.19 3.7 0.72 5.49 0.26 0.87 0.07 1.41-0.65 1.91-1.41 0.99-2.52 2.27-3.42 3.73-0.67 1.1-1.17 2.18 0.19 3.25 2.2-1.21 4.62-2.16 7.02-3.14 1.86-0.76 3.69-1.61 5.52-2.42 0.44-0.2 0.78-0.35 0.62-1.04-1.16-4.91-3.9-8.71-7.92-11.61zm46.02 37.99c-1.7 0.59-3.4 0.63-4.83-0.37-1.24-0.88-2.31-1.12-3.6-0.26-0.28 0.19-0.67 0.22-1.01 0.32-2.53 0.72-5.14 0.74-7.74 0.71-0.35 0-0.76-0.14-1.03 0.13-1.3 1.3-2.21 2.95-1.88 4.7 0.35 1.88 0.93 3.65-0.19 5.46 1.75 0.21 2.43-0.07 3.98-1.58 2.47-2.4 4.77-2.48 7.32-0.26 0.24 0.2 0.36 0.65 0.84 0.5-0.3-6 3.63-7.65 8.52-8.17 0.1-0.49-0.12-0.78-0.38-1.18zm-155.73-10.74c0.86-2.11 1.34-4 0.76-6.21-1.2-4.57-3.34-8.15-8.23-9.42-1.75-0.46-3.49-1.03-5.51-1.28 0.74 1.24 1.22 2.35 1.61 3.5 0.66 1.93 1.37 3.84 2.02 5.78 0.6 1.81 2.11 2.67 3.59 3.74-0.31-2.14-0.55-4.12-0.9-6.09-0.35-1.95-1.25-3.73-2.17-5.63 0.63 0.15 0.68 0.55 0.84 0.84 1.39 2.57 1.99 5.35 2.31 8.22 0.13 1.22 0.01 2.63 1.14 3.48 1.44 1.08 2.99 2.03 4.54 3.07zm205.26-16.96c-2.49 0.47-4.72 1.03-6.89 1.81-2.5 0.9-4.26 2.62-5.44 4.99-0.68 1.38-0.93 2.92-1.45 4.35-0.77 2.11 0.12 3.87 0.78 5.83 1.14-0.77 2.12-1.62 3.24-2.15 1.91-0.9 2.33-2.5 2.48-4.34 0.23-2.84 0.87-5.58 2.19-8.13 0.18-0.34 0.24-0.83 1.06-1.05-2.35 3.7-2.61 7.71-3.16 11.7 2.68-1.74 3.09-2.16 4.06-4.93 0.93-2.65 1.61-5.4 3.13-8.08zm-286.91-21.18c0.91 1.1 1.82 2.19 2.62 3.36 1.52 2.21 3.13 4.35 5.01 6.29 2.22 2.29 4.82 3.75 8.02 4.11 0.33 0.03 0.62 0.1 0.88-0.15 0.61-0.61 1.37-0.88 2.2-1.08 0.9-0.22 1.21-1.36 0.58-2.01-4.93-5.1-10.53-9.13-17.41-11.19-0.89-0.27-1.78-0.58-3.06-0.64 4.3 2.48 8.07 5.17 11.4 8.42-3.31-2.51-6.57-5.08-10.24-7.11zm356.62-1.24c-0.86-0.14-1.44 0.15-2.03 0.31-7.25 1.97-13.17 6.1-18.32 11.44-0.67 0.7-0.31 1.81 0.69 2.05 0.75 0.18 1.44 0.43 2 0.97 0.24 0.23 0.5 0.32 0.86 0.26 2.37-0.36 4.57-1.08 6.47-2.62 3.85-3.11 6.12-7.51 9.27-11.19-3.66 2.03-6.89 4.65-10.24 7.11 3.38-3.2 7.11-5.94 11.3-8.33zm-11.04-0.78c2.08-1.41 4.32-2.48 6.51-3.64 3.09-1.64 6.26-3.17 9.17-5.13 3.67-2.48 6.01-5.91 7.29-10.11-2.85 3.41-5.96 6.53-9.85 8.78 3.51-2.69 6.82-5.59 9.36-9.26-3.16 3.04-6.76 5.46-10.47 7.72-2.8 1.72-5.42 3.68-7.9 5.83-1.2 1.05-2.13 2.31-3.02 3.61 3.22-2.37 6.44-4.7 10.06-6.4-3.87 2.68-8.08 4.9-11.15 8.6zm-358.52-18.85c1.42 4.81 4.34 8.46 8.67 11 3.47 2.04 7.08 3.8 10.62 5.71 1.24 0.67 2.41 1.46 3.67 2.12-3.11-3.66-7.29-5.91-11.18-8.56 1.88 0.7 3.52 1.8 5.15 2.93 1.65 1.13 3.27 2.32 5.11 3.62-1.95-3-4.52-4.98-7.11-6.92-3.29-2.46-6.98-4.32-10.21-6.86-1.45-1.15-2.83-2.38-4.25-3.57 2.56 3.67 5.83 6.6 9.35 9.28-3.87-2.25-6.98-5.33-9.82-8.75zm320.2 23.24c1.19-0.5 2.45-0.32 3.69-0.39 1.61-0.09 3.2-0.25 4.78-0.65 2.38-0.61 4.18-2.25 3.21-5.6-0.14-0.49-0.11-0.71 0.42-0.84 2.97-0.73 4.89-3.85 4.29-6.91-0.19-0.04-0.27 0.11-0.35 0.23-2.64 3.6-6.16 6.05-10.17 7.85-1.76 0.79-3.55 1.49-5.22 2.46-0.97 0.55-1.61 1.18-0.95 2.41 0.21 0.39 0.19 0.9 0.3 1.44zm-258.95-0.02c0.15-0.72 0.15-1.4 0.43-1.93 0.39-0.72 0.09-1.07-0.44-1.45-1.48-1.06-3.15-1.75-4.82-2.45-4.12-1.73-7.81-4.06-10.66-7.59-0.27-0.34-0.44-0.82-1.02-1.05 0 0.58-0.03 1.04 0.01 1.5 0.19 2.72 1.84 4.78 4.46 5.52 0.68 0.19 0.45 0.57 0.3 0.99-0.67 1.95 0.09 4.44 2.55 5.2 1.09 0.33 2.2 0.53 3.32 0.72 1.95 0.34 3.96-0.15 5.87 0.54zm123.75 6.35c3.85-2.44 7.87-3.34 12.2-2.7 1.41-2.75 0.74-6.62-1.42-8.35-0.51-0.4-1.06-0.74-1.73-0.59-1.41 0.33-2.64 2.86-2.05 4.18 0.18 0.43 0.25 0.84 0.07 1.26-0.1 0.26-0.38 0.27-0.62 0.2-0.5-0.13-0.69-0.57-0.68-0.99 0.02-0.88-0.52-1.03-1.2-1.13-1.19-0.19-2.06 0.26-2.7 1.26-1.3 2.02-1.86 4.24-1.87 6.86zm-54.63 54.51c-3.08-0.77-6.11 0.42-7.84 3.21-2 3.23-4.53 5.72-8.18 7.02-1.43 0.51-2.65 1.41-3.63 2.59-1.27 1.51-1.75 3.29-1.75 5.23 0.9-1.08 1.62-2.24 2.75-3.09 1.75-1.3 3.7-1.92 5.84-2.06 2.16-0.14 3.68-1.17 4.68-3.1 0.58-1.14 0.95-2.34 1.33-3.54 0.14-0.42 0.22-1.09 0.89-0.83 0.95 0.36 1.32-0.17 1.62-0.87 0.86-2 2.05-3.71 4.29-4.56zm120.84-0.03c2.07 0.86 3.24 2.49 4.09 4.43 0.33 0.74 0.66 1.5 1.75 1 0.36-0.16 0.58 0.14 0.7 0.46q0.2 0.56 0.36 1.13c0.95 3.63 2.89 5.96 7.02 6.12 2.72 0.11 4.9 1.6 6.49 3.87 0.26 0.37 0.4 0.9 1 1.13-0.21-3.83-2.01-6.5-5.46-7.83-3.59-1.4-6.19-3.78-8.2-7.01-1.76-2.83-4.42-3.9-7.75-3.3zm-186.47-60.62c-0.44-0.41-0.13-0.71-0.14-1.01-0.05-1.14-1.1-1.14-1.74-1.3-0.64-0.16-0.74 0.67-0.78 1.2-0.11 1.24 0.08 2.43 0.64 3.55 0.92 1.86 3.2 3.2 5.09 3 1.48-0.16 4.08-2.52 4.44-4.03 0.48-2.05-1.34-5.13-3.49-5.66-0.89-0.22-1.87-0.69-2.78-0.07-0.02 0.68 0.81 0.67 0.88 1.31-0.21 0.34-0.85 0.45-0.77 1.03 0.06 0.45 0.13 0.89 0.23 1.5-0.8-0.57-1.09 0.23-1.58 0.48zm250.75-4.26c-0.13-0.24-0.35-0.3-0.6-0.31-3.14-0.14-5.62 2.21-5.71 5.05-0.06 2 1.49 3.01 2.67 4.23 0.68 0.69 1.58 0.81 2.51 0.73 3.07-0.27 5.2-2.93 5.03-6.33-0.03-0.61 0.01-1.37-0.82-1.47-0.9-0.11-1.72 0.79-1.65 1.71 0.01 0.24 0.13 0.47-0.29 0.62-0.35-0.45-0.81-0.82-1.67-0.54 0.7-1.15 0.45-1.95-0.39-2.55 0.25-0.52 0.9-0.57 0.92-1.14zm-115.79 45.72c-1.84-0.76-3.73-1.51-4.8-3.18-0.82-1.29-1.78-1.43-3.06-1.28-3.05 0.38-5.67-0.57-7.89-2.68q-0.35-0.32-0.72-0.62c0.75 2.22 1.36 4.41 1.72 6.66 0.09 0.57 0.48 0.66 0.88 0.79q2.27 0.74 4.63 0.93c3.1 0.26 6.19 0.29 9.24-0.62zm-133.37-10.41c-0.93-0.47-1.83-1.03-2.84-1.32-0.96-0.29-1.35-0.02-1.34 0.98 0 0.76 0.25 1.47 0.56 2.17 0.16 0.36 0.33 0.68-0.03 1.07-1.3 1.45-1.36 2.64-0.32 4.21 0.35 0.53 0.68 0.66 1.27 0.36q2.15-1.05 4.52-1.37c0.23-0.03 0.48-0.07 0.56-0.39-0.03-0.09-0.04-0.21-0.1-0.31-0.93-1.68-1.41-3.37-0.09-5.09q0.24-0.32 0.02-0.66c-0.95-1.38-1.29-2.94-1.27-4.72-1.52 0.28-2.76 0.7-3.74 1.84 0.81 0.67 1.82 0.81 2.53 1.66-2.87-1.01-2.87-1.01-3.25-0.46 1.26 0.54 2.56 0.99 3.52 2.03zm246.32 5.94c1.97 0.36 3.84 0.82 5.57 1.69 0.2 0.1 0.38 0.01 0.55-0.11 0.91-0.64 1.52-3.17 0.69-3.9-1.14-0.99-0.72-1.85-0.34-2.86q0.14-0.4 0.18-0.81c0.13-1.24-0.34-1.6-1.51-1.22-0.93 0.3-1.76 0.84-2.64 1.25 0.96-1.09 2.36-1.43 3.78-2.2-1.53-0.9-2.33 0.55-3.47 0.44 0.8-0.46 1.6-0.92 2.5-1.44-1.05-1.15-2.28-1.58-3.67-1.82-0.14 0.95-0.23 1.73-0.38 2.5-0.15 0.79-0.54 1.48-0.98 2.14-0.25 0.39-0.03 0.67 0.19 0.96 0.74 1.02 0.76 2.15 0.41 3.29-0.21 0.67-0.54 1.3-0.88 2.09zm-232.6 25.7c-0.58 0.18-1.17 0.33-1.74 0.55-0.57 0.22-1.36 0.31-0.99 1.38 1.34-0.68 2.65-1.26 4.13-1.18-1.35 0.5-2.83 0.66-3.89 1.74 0.58 1.22 0.8 1.41 2.5 2.14 0.36 0.15 0.73 0.21 0.76 0.76 0.08 1.94 0.75 2.72 2.59 3.19 0.69 0.18 1.07 0.1 1.32-0.67 0.48-1.47 1.22-2.82 2.18-4.05 0.16-0.21 0.38-0.43 0.19-0.77q-0.19-0.06-0.42-0.13c-1.8-0.53-3.31-1.36-3.57-3.47-0.03-0.25-0.13-0.47-0.41-0.52-1.7-0.27-3.05-1.18-4.28-2.44-0.9 1.23-1.45 2.44-1.38 3.94 1.06-0.13 1.94-0.76 3.01-0.47zm221.41-0.14c1.03-0.08 1.93 0.46 2.99 0.63-0.02-1.57-0.51-2.79-1.43-3.96-0.95 0.98-1.88 1.81-3.09 2.11-1 0.25-1.73 0.52-1.81 1.74-0.04 0.62-0.59 1.08-1.08 1.5-0.8 0.69-1.81 0.92-2.92 1.3 1.2 1.69 2.21 3.36 2.83 5.24 0.04 0.12 0.23 0.22 0.36 0.25 1.4 0.35 3.58-1.43 3.4-2.9-0.1-0.76 0.19-0.94 0.76-1.18 1.01-0.42 2.08-0.82 2.4-2.11-1.06-1.12-2.6-1.19-3.9-1.77 1.51-0.06 2.83 0.6 4.14 1.15 0.2-0.24 0.27-0.45 0.14-0.62-0.69-0.94-1.93-0.73-2.79-1.38zm-179-19.54c0.49-0.08 0.64-0.43 0.87-0.68 1.64-1.71 3.23-3.46 5.26-4.75 3.55-2.24 7.25-4.19 11.08-5.9 0.37-0.16 0.91-0.2 0.92-0.77 0.03-1 0.01-1.99 0.01-3.29-1.58 1.87-3.41 2.76-5.39 3.4-2.88 0.92-5.5 2.38-8.1 3.9-3.07 1.81-4.34 4.62-4.65 8.09zm219.19-37.04c-0.64-0.23-1-0.03-1.37 0.07-2.65 0.75-4.21 2.61-4.93 5.15-0.83 2.9-2.44 5.18-4.86 6.94q-1.11 0.8-1.89 1.94c-1.05 1.55-1.24 3.21-0.67 5 0.67-1.7 1.94-2.77 3.46-3.61 0.45-0.24 1.04-0.54 0.8-1.14-0.33-0.86 0.19-1.03 0.77-1.27q0.88-0.34 1.73-0.75c2.13-1.05 3.4-2.62 3.24-5.14-0.07-1.19 0.17-2.35 0.64-3.47 0.63-1.49 1.63-2.67 3.08-3.72zm-301.65-0.03c2.73 2.1 3.65 4.9 3.59 8.17-0.03 1.27 0.55 2.34 1.6 3.16 1.01 0.79 2.13 1.34 3.31 1.79 0.58 0.22 1.14 0.42 0.75 1.25-0.17 0.38 0.1 0.72 0.42 0.9 1.66 0.91 3.11 2.04 3.93 4.14 0.7-3.04-0.13-5.24-2.29-6.92-2.21-1.73-4.13-3.66-4.93-6.47-0.26-0.91-0.59-1.8-1.05-2.63q-1.75-3.09-5.33-3.39zm175.77 13.03c3.59-2.27 6.7-4.91 8.39-8.89 0.77-1.79 0.09-2.44-1.89-2.23-1.26 0.14-2.5 0.63-3.73 1.03-0.64 0.21-1.19 0.55-1.41 1.29-0.81 2.81-1.98 5.56-1.36 8.8zm92.82-17.65c-1.99 0.02-3.25 0.88-4.25 2.16-0.42 0.54-0.27 1.14 0.31 1.55 0.35 0.25 0.63 0.55 0.47 0.98-0.48 1.24-0.45 2.56-0.59 3.85-0.2 1.93-0.21 3.87 0.99 5.57 0.2 0.28 0.37 0.73 0.79 0.61 1.3-0.36 2.65-0.58 3.87-1.32-2.66-4.19-2.99-8.61-1.59-13.4zm-237.35 13.43c0.82 0.46 1.62 0.65 2.41 0.88 1.94 0.55 2.44 0.3 3.02-1.65 0.19-0.67 0.31-1.39 0.32-2.09 0.03-1.89-0.09-3.78-0.59-5.62-0.14-0.53-0.09-0.92 0.39-1.23 0.55-0.35 0.66-0.87 0.42-1.45-0.49-1.16-2.83-2.34-4.28-2.09 0.57 2.21 0.93 4.42 0.66 6.73-0.28 2.33-1.02 4.44-2.35 6.52zm-32.09-27.46c0.13-0.58 0.21-0.99 0.3-1.4 0.51-2.4 1.73-4.53 2.57-6.8 0.32-0.86 0.64-1.75 0.21-2.62-0.56-1.11-1.26-2.13-2.16-3-3.51 3.22-3.9 8.73-0.92 13.82zm302.21-13.84c-0.28 0.32-0.49 0.6-0.73 0.86-1.62 1.74-1.96 3.59-0.84 5.8 1.13 2.21 2.12 4.51 2.47 7.07 3.03-3.81 2.59-10.61-0.9-13.73zm-46.87 66.37c-2.68 0.39-5.33 0.79-8.11 0.52-0.54 1.94-1.99 3.45-2.88 5.3 0.24 0.06 0.33 0.11 0.39 0.09q5.04-1.11 10.07-2.23c0.36-0.09 0.69-0.25 0.69-0.7 0.01-0.97 0.15-1.95-0.16-2.98zm-207.54 0.01c-0.24 0.88-0.11 1.64-0.18 2.38-0.09 0.91 0.36 1.24 1.19 1.41 2.66 0.57 5.31 1.22 7.98 1.8 0.62 0.13 1.25 0.45 2.06 0.2-1.04-1.84-2.33-3.44-2.97-5.29-2.8 0.29-5.41-0.15-8.08-0.5zm61.13-40.64c0.3-0.6 0.48-1.15 0.81-1.58 0.83-1.06 0.61-1.97-0.03-3.08-1.99-3.5-3.36-7.23-3.57-11.3-0.02-0.27 0.02-0.56-0.24-0.75-0.07 0.03-0.17 0.04-0.21 0.09q-0.16 0.18-0.27 0.38c-1.5 2.8-1.48 5.69-0.42 8.6 0.98 2.68 2.66 5 3.93 7.64zm47.31 16.88c-1.19 0.88-2.32 1.75-3.92 1.75 0 0.89 0 1.71 0 2.53 0 0.39 0.12 0.74 0.52 0.84 2.1 0.54 3.89 1.63 5.48 3.16 0.51-1.43 1.3-2.55 2.19-3.64-1.03-1.87-2.38-3.43-4.27-4.64zm-122.49 0.25c4.38 3.72 7.56 8.3 11.88 11.93-0.41-1.25-0.74-2.37-1.13-3.47-0.66-1.88-1.22-3.81-2.19-5.57-0.22-0.41-0.42-0.84-0.96-0.97-2.47-0.61-4.93-1.25-7.6-1.92zm235.72-0.04c-2.52 0.66-4.74 1.3-7 1.8-0.92 0.2-1.41 0.66-1.8 1.46-1.37 2.74-2.01 5.74-3.23 8.8 4.4-3.73 7.6-8.31 12.03-12.06zm-4.28 9.16c-1 0.22-2.03 0.17-3.03 0.22-1.1 0.05-1.79 0.58-2.52 1.28-1.86 1.81-3.63 3.73-5.83 5.18-1.25 0.83-2.49 1.69-3.81 2.59 1.76 0.72 3.47 0.96 5.2 1.07 0.43 0.02 0.85 0.03 1.16-0.41 0.7-1.05 1.53-2 1.89-3.26 0.24-0.83 0.5-1.66 0.99-2.4 1.42-2.19 3.34-3.65 5.95-4.27zm-211.92 9.19c-4.16-2.27-7.44-5.28-10.57-8.47-0.16-0.15-0.38-0.33-0.59-0.35-1.37-0.17-2.75-0.29-4.39-0.46 0.34 0.2 0.43 0.28 0.53 0.3 3.39 0.79 5.54 2.9 6.56 6.18 0.35 1.12 0.98 2.05 1.59 3.02 0.5 0.79 1.11 1.04 1.98 0.93 1.58-0.22 3.18-0.36 4.89-1.15zm166.5 8.54c0.07-4.8-4.57-9.94-9.42-10.61q-0.16 0.43-0.3 0.88c-0.46 1.69-0.48 1.72 1.06 2.55 2.55 1.39 4.87 3.06 6.82 5.23 0.55 0.61 1.12 1.19 1.84 1.95zm90.14-57.95c-2.11 2.57-4.35 4.69-7.87 5.05 0.11 1.22 0.23 2.43-0.21 3.58 2.56 0.72 4.6 0.84 6.02-2.14 0.21-0.46 0.53-0.87 0.76-1.32 0.79-1.58 1.42-3.2 1.3-5.17zm-316.7-0.07c0.01 3.53 1.67 6.12 3.56 8.62 0.08 0.11 0.25 0.19 0.39 0.22 1.38 0.25 2.77 0.5 4.24-0.19-0.69-1.11-0.2-2.36-0.37-3.55-3.43-0.35-5.66-2.44-7.82-5.1zm145.57 26.79c1.95 1.9 3.22 4.27 4.72 6.87 0.15-4.08 1.3-7.71 0.96-11.63-2.19 1.4-4.07 2.85-5.68 4.76zm145.94 24.54c-0.42 1.38 0.32 2.31 1.31 3.06 1.65 1.24 2.25 2.89 2.14 4.88-0.04 0.74-0.19 1.52 0.09 2.23 0.33 0.84 0.66 1.79 1.78 1.8 1.61 0.01 2.61-1.14 2.56-2.77-0.06-1.9-1.1-3.09-2.65-4.07-2.08-1.32-4.39-2.46-5.23-5.13zm-266.3-0.02c-0.44 1.52-1.45 2.56-2.66 3.42q-1.34 0.98-2.75 1.85c-1.58 0.96-2.47 2.3-2.45 4.18 0.01 1.44 0.92 2.39 2.43 2.53 0.87 0.09 1.79-0.88 1.99-2.12q0.1-0.53 0.05-1.06c-0.29-2.46 0.32-4.51 2.44-6.04 0.85-0.61 1.4-1.56 0.95-2.76zm181.34 18.26c-0.12-0.07-0.24-0.17-0.38-0.2-1.43-0.36-2.54 0.27-3.5 1.23-0.9 0.9-1.79 1.98-3.09 2.03-1.94 0.07-3.4 0.88-4.75 2.14-0.48 0.45-1.13 0.71-1.68 1.09-0.34 0.23-0.85 0.26-0.98 0.76 1.55 1.58 4.42 1.6 6.1 0.07 1.02-0.94 1.73-2.14 2.63-3.17 1.53-1.75 2.96-3.68 5.65-3.95zm99.66-76.91c-1.3 3.11-1.29 6.07-0.96 9.07 0.02 0.2 0.13 0.38 0.35 0.43 1.49 0.3 2.28 1.41 2.95 2.72 0.78-1.01 1.12-1.93 0.89-3.21-0.55-3.11-2.34-5.73-3.23-9.01zm-295.61 0.02c-0.4 1.05-0.68 1.82-0.99 2.58-0.73 1.82-1.64 3.57-2.12 5.49-0.36 1.45-0.61 2.86 0.74 4.08 0.45-0.93 0.96-1.93 1.93-2.27 1.06-0.37 1.26-0.93 1.39-2.01 0.33-2.65-0.05-5.16-0.95-7.87zm34.74 24.59c0.27 0.97 1 1.91 0.08 2.75-0.69 0.64-0.52 1.2-0.42 1.95 0.42 3.11 1.07 6.27-1.05 9.2 1.38 0.36 2.63 0.84 4.16 0.95-1.12-2.52-0.97-4.96-0.78-7.41 0.11-1.38 0.12-2.77-0.09-4.14-0.21-1.33-0.79-2.47-1.9-3.3zm227.43 13.94c-0.47-0.91-1.02-1.63-1.2-2.53-0.44-2.33-0.22-4.63 0.22-6.93 0.12-0.6 0.27-1.13-0.39-1.63-0.62-0.47-0.62-1.21-0.27-1.94 0.13-0.27 0.59-0.48 0.27-0.92-0.52-0.05-0.61 0.4-0.83 0.69-1.13 1.52-1.24 3.3-1.22 5.09 0.04 3.01 0.67 6.05-0.76 9.21 1.57-0.39 2.83-0.71 4.18-1.04zm3.26 0.75c-2.95 2.53-5.2 5.43-7.86 8.12 1.07 0.23 1.86-0.15 2.69-0.15 1.91 0.01 3.33-1.28 4.97-1.98 0.3-0.13 0.23-0.47 0.3-0.73 0.45-1.68 0.14-3.35-0.1-5.26zm-227.42 8.13c-2.8-2.7-4.93-5.72-7.91-8.06-0.23 1.86-0.53 3.53-0.09 5.21 0.07 0.27 0.03 0.56 0.31 0.73 2.29 1.35 4.69 2.32 7.69 2.12zm213.87 11.04c-1.86-0.16-3.56-0.4-5.22-0.91-1.3-0.4-2.71 0.34-2.8 1.35-0.07 0.9-0.1 1.81-0.15 2.71 1.6 0.41 6.01 0.12 7.72-0.52q0.06-0.62 0.15-1.26c0.08-0.42 0.18-0.84 0.3-1.37zm-200.02 3.26c-0.06-0.81-0.14-1.43-0.16-2.06-0.06-1.65-1.1-2.58-2.65-2.14-1.75 0.49-3.52 0.78-5.34 0.95 0.12 0.75 0.28 1.44 0.32 2.14 0.03 0.52 0.28 0.65 0.72 0.74 2.33 0.45 4.67 0.53 7.11 0.37zm53.98-21.6c-2.55-3.4-2.92-6.92-1.04-10.62 0.08-0.17 0.14-0.36 0.03-0.56-0.93-1.81-0.58-3.72-0.34-5.75-0.77 0.7-1.08 1.51-1.34 2.33-0.78 2.47-0.64 5-0.51 7.52 0.12 2.33 0.22 4.66-0.23 6.96-0.14 0.72-0.3 1.43-0.5 2.37 1.3-1.01 2.39-1.93 3.93-2.25zm198.13-47.43c-0.47 2.38-0.72 4.75-1.13 7.1-0.41 2.38-0.94 4.73-1.84 7.3 1.91-1.41 3.37-2.79 4.35-4.64 0.61-1.16-0.04-2.24-0.25-3.31-0.44-2.14-0.85-4.27-1.13-6.45zm-312.4 0c-0.28 2.78-0.91 5.47-1.52 8.17-0.14 0.59-0.1 1.09 0.15 1.59 0.95 1.86 2.43 3.23 4.34 4.65-1.73-4.86-2.24-9.64-2.97-14.41zm5.26 19.28c-0.43-0.87-0.73-1.56-1.09-2.2-0.37-0.64-0.41-1.47-1.05-1.94-1.9-1.41-3.71-2.89-5-5.22-0.17 1.5-0.78 2.81-0.13 3.95 1.56 2.74 3.93 4.54 7.27 5.41zm301.95-0.07c2.61-0.46 4.38-2 6.08-3.66 1.61-1.58 1.54-3.4 0.92-5.54-1.05 1.89-2.44 3.21-3.98 4.4-0.48 0.38-1.1 0.63-1.39 1.25-0.51 1.14-1.04 2.28-1.63 3.55zm-307.02-21.48c0.9 3.73 0.86 7.38 1.79 11 0.9-2.27 1.68-4.47 3.19-6.3-1.51-1.7-3.15-3.17-4.98-4.7zm307.03 4.72c1.56 1.86 2.29 4.04 3.2 6.27 0.92-3.65 0.92-7.3 1.77-10.99-1.82 1.56-3.49 3.01-4.97 4.72zm-205.5 96.96c1.28-2.84 2.14-5.58 1.51-8.58-0.18-0.88-0.87-1.23-1.72-1.26-1.47 3.4-1.45 8.29 0.21 9.84zm108.95-0.01c1.69-1.53 1.66-7.2 0.14-9.86-0.83 0.14-1.51 0.49-1.68 1.39-0.54 2.97 0.28 5.68 1.54 8.47zm-110.36-0.31c-0.7-3.38-0.54-6.49 0.59-9.53-2.35-0.16-3.63 0.86-3.75 2.88-0.17 2.63 0.78 4.78 3.16 6.65zm111.76 0c2.5-1.94 3.44-4.21 3.15-7-0.19-1.76-1.72-2.8-3.72-2.46 1.16 2.98 1.27 6.04 0.57 9.46zm-174.31-46.88c-0.12-0.93-0.22-1.74-0.34-2.67-2.6 1.7-5.12 2.7-7.73 0.1 0.57 1.8 0.53 3.57 0.51 5.44 1.38-0.4 2.68-0.32 3.37-1.72 0.39-0.8 1.31-1.1 2.22-1.14 0.58-0.03 1.17-0.01 1.97-0.01zm244.95-2.59c-2.63 2.72-5.2 1.51-7.99-0.19 0.41 1.11-0.23 1.87 0.04 2.77q0.79 0 1.54 0c1.08 0 2.12 0.31 2.63 1.29 0.73 1.39 2.01 1.17 3.26 1.57-0.02-1.93-0.02-3.66 0.52-5.44zm-39.46 38.21c1.14 3.07 3.81 3.38 8.2 2.25q-2.79-4.44-8.2-2.25zm-182.37 2.26c4.38 1.04 7.14 0.92 8.25-2.3-3.85-1.36-5.9-0.8-8.25 2.3zm207.66-21.63c-4.22-0.42-5.75 0.66-7.32 4.27 2.85 1.27 5-0.19 7.32-4.27zm-217.31 4.27c-1.59-3.63-4.12-5.06-7.31-4.19 2.28 4.1 4.43 5.4 7.31 4.19zm150.62-60.78c-0.1 3.07-1.13 5.91-2.11 8.89 1.14-0.08 1.99-0.34 2.84-0.63 0.27-0.09 0.53-0.13 0.61-0.46 0.62-2.76 0.41-5.38-1.34-7.8zm50.24 70.4c-3.21 0.37-6.22 0.92-7.69 4.24 0.94-0.09 1.91-0.39 2.8-0.23 1.26 0.23 2.08-0.32 2.8-1.1 0.8-0.86 1.52-1.79 2.09-2.91zm-184.08 4.29c-1.51-3.42-4.55-3.89-7.7-4.31 0.61 1.2 1.39 2.22 2.3 3.14 0.43 0.42 0.95 1.04 1.57 0.94 1.29-0.21 2.51 0.07 3.83 0.23zm195.52-23.99c-2.8 3.36-3.46 5.72-2.39 8.33 0.61-0.74 1.09-1.64 1.84-2.15 1.03-0.7 1.16-1.66 1.14-2.66-0.02-1.13-0.16-2.28-0.59-3.52zm-212.26 8.36c1.3-3.43-0.38-5.87-2.43-8.39-0.37 1.55-0.75 2.98-0.46 4.49 0.08 0.38-0.04 0.88 0.33 1.1 1.12 0.68 1.7 1.84 2.56 2.8zm156.78-36.71c2.51 0.83 4.01 2.58 5.26 4.65 0.06-2.05-0.3-3.96-1.57-5.6-1.38-1.8-1.76-1.87-3.97-0.76 0.22 0.52 0.44 1.06 0.28 1.71zm-104.31 55.75c0.85 3.38-0.1 6.23-1.1 9.24 2.18-1.05 3.49-2.52 3.66-4.78 0.14-1.85-0.78-3.21-2.56-4.46zm104.87 0.15c-1.99 1.21-2.81 2.98-2.43 4.9 0.39 1.96 1.92 3.69 3.54 3.95-1.02-2.82-1.87-5.64-1.11-8.85zm-197.97-31.02c2.39 1.28 4.63 2.25 7.22 1.92 0.7-0.09 1.07-0.6 1.14-1.3-2.17-1.47-6.62-1.91-8.36-0.62zm290.91-0.1c-1.42-1.22-6.32-0.72-8.14 0.77 0.41 1.08 0.62 1.27 1.66 1.33 1.75 0.11 3.36-0.47 4.94-1.11 0.56-0.22 1.18-0.42 1.54-0.99zm-135.79-9.6c0.54-0.4 0.98-0.79 1.47-1.09 0.47-0.29 0.48-0.66 0.35-1.11-0.67-2.33-0.92-4.69-0.47-7.28-0.77 0.62-2.04 0.4-1.99 1.67 0.1 2.58 0.12 5.16 0.64 7.81zm135.31 8.49c-1.4-2-4.81-2.88-6.66-1.85-0.93 0.51-1.38 1.81-0.97 3.07 2.38-1.17 4.91-1.48 7.63-1.22zm-289.83 0c2.83-0.26 5.38 0.06 7.77 1.24 0.36-1.54-0.19-2.78-1.29-3.21-2.02-0.78-4.83-0.01-6.48 1.97zm288.18 31.41c0.86 1.68 3.44 2.72 5.51 2.34 0.47-0.08 1-0.15 1.11-0.71 0.12-0.57-0.19-1.06-0.65-1.29-1.9-0.93-3.85-1.23-5.97-0.34zm-286.43 0c-2.1-0.89-4.03-0.57-5.91 0.29-0.47 0.22-0.8 0.69-0.73 1.25 0.07 0.65 0.64 0.73 1.15 0.81 1.16 0.16 2.26-0.15 3.36-0.45 0.96-0.26 1.68-0.81 2.13-1.9zm-6.96-5.92c1.52 1.96 5.31 2.35 6.86 0.78-1.96-1.61-5.49-2.03-6.86-0.78zm293.29 0.74c1.76 1.33 4.27 1.31 6.27 0.08 0.33-0.2 0.78-0.38 0.71-0.85-0.07-0.45-0.53-0.55-0.91-0.62-2.16-0.36-4.09 0.24-6.07 1.39zm-56.91 4.05c-0.5 3.15-0.09 5.78 1.97 8.22 0.78-3.11-0.01-5.64-1.97-8.22zm-172.53 0.14c-1.83 2.46-2.67 4.98-1.86 7.97 1.91-1.99 2.67-5.24 1.86-7.97zm191.32-14.56c1.61 2.36 3.69 3.93 6.85 4.18-1.64-2.7-3.91-3.97-6.85-4.18zm-209.73-0.19c-3.2 0.43-5.5 1.65-7.12 4.41 3.13-0.34 5.28-1.81 7.12-4.41zm-33.11-11.99c-2.87 0.35-5.15-0.62-7.61-1.64 0.75 1.98 1.92 3.15 3.81 3.42 1.47 0.21 2.66-0.35 3.8-1.78zm275.82 0.02c1.13 1.57 2.64 2.1 4.25 1.64 1.62-0.46 2.85-1.78 2.98-3.25-2.25 1.05-4.53 1.9-7.23 1.61zm-132.85-16.65c1.4 0.7 2.36 1.72 3.41 2.87 0.12-2.35-0.39-4.44-0.22-6.6-0.28 0.01-0.51-0.04-0.58 0.04-0.97 1.08-1.36 2.56-2.61 3.69zm131.16 49.95c-0.41-1.92-3.81-2.94-5.74-1.72 0.72 1.61 3.78 2.53 5.74 1.72zm-266.86-1.81c-2.35-1.06-5.56 0.02-5.67 1.89 2.34 0.67 5.17-0.27 5.67-1.89zm271.5-14.44c-1.5-0.75-4.92 0.5-5.95 2.16 1.8 0.81 5.3-0.47 5.95-2.16zm-275.92 2.18c-0.98-1.72-4.67-3.01-5.95-2.08 0.88 1.67 4.15 2.82 5.95 2.08zm240.97-58.98c1.17 2.51 2.96 4.43 5.57 5.89-0.76-3.26-3.37-4.38-5.57-5.89zm-211.7-0.22c-3.96 2.29-5.56 4.03-5.61 6.04 2.37-1.44 4.21-3.3 5.61-6.04zm204.28 93.53c1.71 1.36 4.73 1.82 6.17 0.89-1.92-1.48-3.96-1.45-6.17-0.89zm-197.2 0.12c-2.13-0.65-4.18-0.73-6.26 0.92 2.49 0.94 4.36-0.06 6.26-0.92zm-2.65-4.56c-2.18-0.95-4.06-1.21-6.13-0.05 2.06 1.08 3.94 0.9 6.13 0.05zm202.69 0.08c2.1 0.7 3.97 1 5.91-0.12-1.76-1.11-3.87-1.07-5.91 0.12zm-202.23 11.95c1.9 0.25 4.03-0.98 4.98-2.86-1.79 0.84-3.81 0.86-4.98 2.86zm201.45-0.05c-0.98-1.9-2.97-2.01-4.69-2.59 1.19 1.5 2.49 2.81 4.69 2.59zm51.32-96.55c0.82-0.72 1.63-1.26 2.16-2.34-1.41 0.56-2.67 0.16-4.14-0.01 0.72 0.85 1.31 1.55 1.98 2.35zm-306.06-2.35c0.59 1.09 1.37 1.69 2.2 2.32 0.65-0.77 1.24-1.47 1.96-2.32-1.47 0.17-2.73 0.56-4.16 0zm94.36 69.83c-0.82 2.37 0.79 5.33 2.87 5.6-2.23-2.93-2.24-2.94-2.87-5.6zm119.45-0.07c-0.27 2.37-1.34 4.13-2.96 5.73 2.31-0.46 3.89-3.44 2.96-5.73zm-185.27-68.49c-0.83 0.16-1.46 0.51-2.01 1.04 0.49 0.92 1.88 0.79 2.12 2.19 0.38-2.13 0.38-2.13-0.11-3.23zm251.2 0.01c-0.59 1.15-0.59 1.15-0.09 3.12 0.16-1.36 1.68-1.1 2.04-2.12-0.59-0.5-1.2-0.9-1.95-1zm-268.81 17.55c0.73 1.03 1.03 2.13 2.18 2.77-0.09-1.24-0.18-2.34-0.27-3.58-0.69 0.29-1.21 0.51-1.91 0.81zm284.37 2.76c0.9-0.76 1.43-1.71 1.88-2.77-0.62-0.31-1.12-0.66-1.79-0.63q-0.14 1.58-0.26 3.09c0 0.06 0.07 0.13 0.17 0.31zm-281.83 9.64c-1.86-0.68-3.9 0.19-4.58 2.07 1.45-1.15 2.91-1.85 4.58-2.07zm138.81-40.65c-0.07 0.93 0.17 1.69 0.61 2.4 0.22 0.36 0.55 0.63 0.98 0.37 0.38-0.23 0.29-0.61 0.13-0.95-0.37-0.75-0.83-1.42-1.72-1.82zm147.1 42.72c-0.76-1.88-2.76-2.75-4.54-2.05 1.65 0.2 3.07 0.95 4.54 2.05z"/>
</svg>